<svg width="68" height="23" viewBox="0 0 68 23" fill="none" xmlns="http://www.w3.org/2000/svg">
<path d="M0 0V23H23.6233V0H0Z" fill="white"/>
<path d="M28.7908 11.984H31.4384C32.4747 11.984 33.1887 12.4222 33.1887 13.5284C33.1887 14.6346 32.3552 14.9537 31.3912 14.9537H28.7908V11.9786V11.984ZM26.3682 16.801H31.7218C33.7194 16.801 35.6252 15.8625 35.6252 13.6663C35.6252 12.314 34.9418 11.3025 33.5971 10.9238C34.0522 10.7397 34.4392 10.4255 34.707 10.0228C34.9748 9.62008 35.1109 9.14776 35.0974 8.66819C35.0974 6.65326 33.6749 5.98522 31.569 5.98522H26.3682V16.8037V16.801ZM28.7963 7.83517H31.0717C31.9385 7.83517 32.7386 8.04613 32.7386 9.07659C32.7386 9.98534 32.1052 10.364 31.2523 10.364H28.7908V7.83517H28.7963ZM36.8004 16.801H38.998V13.285C38.998 11.9056 39.5536 10.7697 41.165 10.7697C41.4299 10.7703 41.6941 10.7957 41.954 10.8454V8.83317C41.7996 8.78461 41.6385 8.75908 41.4762 8.75745C40.9305 8.76578 40.3989 8.92746 39.9455 9.22304C39.492 9.51862 39.136 9.9355 38.9202 10.4235H38.8896V8.97111H36.8004V16.801ZM47.5688 13.761C47.5688 14.2289 47.5077 15.5622 45.788 15.5622C45.0767 15.5622 44.4433 15.3648 44.4433 14.5642C44.4433 13.7637 45.0601 13.5473 45.7435 13.4121C46.427 13.2768 47.1965 13.2768 47.5688 12.9577V13.7691V13.761ZM44.7045 11.3782C44.7823 10.529 45.324 10.1963 46.1575 10.1963C46.9326 10.1963 47.5827 10.3342 47.5827 11.2565C47.5827 12.1355 46.3297 12.0895 44.9823 12.287C43.6348 12.4844 42.2568 12.8928 42.2568 14.6643C42.2568 16.2709 43.4654 17.0119 44.9823 17.0119C45.9574 17.0119 46.9798 16.7415 47.6772 16.0437C47.6958 16.3013 47.7472 16.5556 47.83 16.801H50.0526C49.8497 16.4818 49.7747 15.7705 49.7747 15.0592V10.9833C49.7747 9.10634 47.855 8.75745 46.2603 8.75745C44.4655 8.75745 42.6236 9.36328 42.4986 11.3782H44.7045ZM51.2527 16.7874H53.4503V12.6954C53.4503 11.105 53.9615 10.4532 55.1534 10.4532C56.173 10.4532 56.5619 11.0915 56.5619 12.3789V16.801H58.7595V11.984C58.7595 10.0448 58.1705 8.75745 55.834 8.75745C55.3459 8.75253 54.8647 8.86984 54.4366 9.09812C54.0084 9.32641 53.6478 9.658 53.3892 10.0611H53.317V8.97922H51.2277V16.8091L51.2527 16.7874ZM65.9107 16.7874H67.9999V5.96899H65.8023V9.92313H65.7718C65.51 9.55049 65.1558 9.24826 64.742 9.04447C64.3282 8.84069 63.8682 8.74196 63.4047 8.75745C61.0516 8.75745 59.8597 10.7129 59.8597 12.8144C59.8597 14.978 61.0349 17.0092 63.4492 17.0092C64.4716 17.0092 65.3689 16.6468 65.8801 15.7975H65.9107V16.7983V16.7874ZM65.8801 12.8495C65.8801 14.1369 65.4467 15.3783 63.9909 15.3783C62.6296 15.3783 62.0462 14.0909 62.0462 12.863C62.0462 11.5756 62.5407 10.364 63.9909 10.364C65.4412 10.364 65.8801 11.5756 65.8801 12.8495Z" fill="white"/>
<path d="M5.15923 11.9842H7.83466C8.88206 11.9842 9.60162 12.4223 9.60162 13.5285C9.60162 14.6347 8.76815 14.9538 7.78743 14.9538H5.15923V11.9788V11.9842ZM2.70605 16.8011H8.11526C10.1323 16.8011 12.0548 15.8626 12.0548 13.6664C12.0548 12.3141 11.3686 11.3026 10.0072 10.924C10.9768 10.4696 11.5242 9.72853 11.5242 8.66832C11.5242 6.65339 10.085 5.98535 7.95968 5.98535H2.70605V16.8038V16.8011ZM5.15923 7.8353H7.4596C8.33474 7.8353 9.14876 8.04626 9.14876 9.07672C9.14876 9.98547 8.50699 10.3641 7.64574 10.3641H5.14534V7.8353H5.15923ZM20.9062 13.4068C21.0618 10.9997 19.7338 8.75758 16.9806 8.75758C14.5274 8.75758 12.8521 10.5453 12.8521 12.8929C12.8521 15.3271 14.433 17.012 16.9806 17.012C18.8114 17.012 20.1394 16.225 20.7645 14.3778H18.8198C18.6698 14.8619 17.9502 15.3839 17.0584 15.3839C15.8248 15.3839 15.1358 14.7618 15.0719 13.3987L20.9062 13.4068ZM15.0719 12.0545C15.0749 11.8245 15.1258 11.5974 15.2215 11.3871C15.3171 11.1767 15.4556 10.9875 15.6286 10.8307C15.8016 10.674 16.0054 10.553 16.2277 10.4751C16.4501 10.3973 16.6864 10.3641 16.9222 10.3776C18.0002 10.3776 18.4836 10.9537 18.6892 12.0437L15.0719 12.0545Z" fill="black"/>
</svg>
