<svg width="68" height="68" viewBox="0 0 68 68" fill="none" xmlns="http://www.w3.org/2000/svg">
<path d="M67.2922 22.7523L56.7337 1.56485C56.5777 1.26987 56.3438 1.02336 56.0574 0.85213C55.7709 0.680905 55.443 0.591536 55.1094 0.593752H12.7344C12.3424 0.593065 11.9613 0.722823 11.6513 0.962579C11.3412 1.20233 11.1197 1.53845 11.0217 1.91797L0.569203 22.7523C0.420476 23.0455 0.35655 23.3744 0.384625 23.7019C0.4127 24.0295 0.53166 24.3427 0.72811 24.6063L32.5623 66.9812C32.7268 67.2005 32.9401 67.3785 33.1852 67.5011C33.4304 67.6237 33.7007 67.6875 33.9748 67.6875C34.2486 67.6856 34.5183 67.621 34.7632 67.4985C35.008 67.3761 35.2216 67.1991 35.3873 66.9812L67.1156 24.6063C67.3114 24.3427 67.4313 24.0307 67.4624 23.7039C67.4935 23.3771 67.4347 23.0481 67.2922 22.7523ZM52.2844 4.125L44.5156 19.5919L36.8175 4.125H52.2844ZM41.673 21.7813H26.1884L33.9572 6.31438L41.673 21.7813ZM31.0969 4.125L23.3281 19.5919L15.63 4.125H31.0969ZM12.7697 6.31438L20.4855 21.7813H5.00092L12.7697 6.31438ZM5.67186 25.3125H21.9509L30.0728 57.8L5.67186 25.3125ZM33.9219 58.6475L25.5881 25.3125H42.2556L33.9219 58.6475ZM37.7356 57.9412L45.8928 25.3125H62.1719L37.7356 57.9412ZM47.3759 21.7813L55.1447 6.31438L62.8605 21.7813H47.3759Z" fill="#2878CD"/>
</svg>
