<svg width="66" height="19" viewBox="0 0 66 19" fill="none" xmlns="http://www.w3.org/2000/svg">
<path d="M13.6103 10.7036L12.8572 11.6033L13.6223 10.7036H13.6103Z" fill="#A3195B"/>
<path d="M5.99784 16.6973C5.82756 16.6973 5.66207 16.6973 5.49658 16.6724C5.66447 16.6873 5.82995 16.6973 5.99784 16.6973Z" fill="#A3195B"/>
<path d="M6.00024 16.6973C6.12976 16.6973 6.25927 16.6973 6.38638 16.6824C6.25927 16.6824 6.12976 16.6973 6.00024 16.6973Z" fill="#A3195B"/>
<path d="M45.2494 4.87207C44.8328 4.87207 44.4332 5.04405 44.1386 5.35017C43.844 5.6563 43.6785 6.07149 43.6785 6.50442V11.4214C43.6785 12.969 42.9134 13.7615 41.7166 13.7615C40.5198 13.7615 39.8147 12.969 39.8147 11.4214V6.50442C39.8147 6.07149 39.6492 5.6563 39.3546 5.35017C39.06 5.04405 38.6604 4.87207 38.2438 4.87207C37.8271 4.87207 37.4276 5.04405 37.133 5.35017C36.8384 5.6563 36.6729 6.07149 36.6729 6.50442V12.4531C36.6729 15.0923 38.0591 16.7246 40.4359 16.7246C42.026 16.7246 42.9566 15.8449 43.6785 14.878V15.0076C43.6785 15.4405 43.844 15.8557 44.1386 16.1618C44.4332 16.4679 44.8328 16.6399 45.2494 16.6399C45.666 16.6399 46.0656 16.4679 46.3602 16.1618C46.6548 15.8557 46.8203 15.4405 46.8203 15.0076V6.50442C46.8203 6.07149 46.6548 5.6563 46.3602 5.35017C46.0656 5.04405 45.666 4.87207 45.2494 4.87207Z" fill="white"/>
<path d="M53.0393 9.5549C51.8401 9.12377 50.7872 8.82471 50.7872 8.17925V8.14934C50.7872 7.69827 51.1805 7.35435 51.9432 7.35435C52.6052 7.35435 53.4518 7.63347 54.3416 8.08455C54.518 8.18731 54.7174 8.23975 54.9196 8.23657C55.0844 8.24023 55.2483 8.20957 55.4015 8.1464C55.5547 8.08323 55.6942 7.98882 55.8118 7.86874C55.9294 7.74867 56.0226 7.60535 56.086 7.44724C56.1495 7.28913 56.1818 7.11943 56.1811 6.94814C56.184 6.69076 56.115 6.43802 55.9827 6.22045C55.8503 6.00287 55.6602 5.82976 55.4352 5.72201C54.3721 5.15939 53.1986 4.8584 52.0056 4.84229C49.7751 4.84229 47.9547 6.15315 47.9547 8.49326V8.53562C47.9547 10.7785 49.7127 11.5262 51.2621 11.9922C52.4805 12.3785 53.5549 12.6152 53.5549 13.323V13.3679C53.5549 13.8812 53.1424 14.2252 52.2334 14.2252C51.1629 14.1743 50.1265 13.8182 49.2379 13.1959C49.0492 13.0833 48.8353 13.0241 48.6177 13.0244C48.4001 13.0246 48.1864 13.0843 47.9979 13.1973C47.8095 13.3104 47.6529 13.4729 47.5439 13.6686C47.4349 13.8643 47.3772 14.0863 47.3767 14.3124C47.3755 14.5364 47.43 14.757 47.5351 14.9526C47.6402 15.1483 47.7922 15.3123 47.9763 15.4289C49.2174 16.2727 50.6663 16.727 52.1495 16.7372C54.5478 16.7372 56.3874 15.5784 56.3874 13.024V12.9816C56.3874 10.8633 54.5886 10.0907 53.0393 9.5549Z" fill="white"/>
<path d="M62.647 9.5549C61.4478 9.12376 60.3949 8.82471 60.3949 8.17925V8.14934C60.3949 7.69827 60.7883 7.35435 61.5533 7.35435C62.2129 7.35435 63.0619 7.63347 63.9517 8.08455C64.1281 8.1873 64.3275 8.23975 64.5297 8.23657C64.6945 8.24023 64.8584 8.20957 65.0116 8.1464C65.1648 8.08322 65.3043 7.98882 65.4219 7.86874C65.5395 7.74867 65.6327 7.60535 65.6962 7.44724C65.7596 7.28913 65.7919 7.11943 65.7912 6.94814C65.794 6.69109 65.7253 6.43868 65.5934 6.22119C65.4615 6.00371 65.2721 5.83038 65.0478 5.72201C63.9837 5.15936 62.8095 4.85837 61.6157 4.84229C59.3852 4.84229 57.5673 6.15315 57.5673 8.49326V8.53562C57.5673 10.7785 59.3229 11.5262 60.8722 11.9922C62.093 12.3785 63.1674 12.6152 63.1674 13.323V13.3679C63.1674 13.8812 62.7525 14.2252 61.8435 14.2252C60.7728 14.1697 59.7373 13.8094 58.8504 13.1834C58.6617 13.0708 58.4479 13.0117 58.2302 13.0119C58.0126 13.0122 57.7989 13.0718 57.6105 13.1849C57.422 13.2979 57.2654 13.4604 57.1564 13.6561C57.0474 13.8518 56.9898 14.0738 56.9893 14.2999C56.9885 14.5239 57.0432 14.7442 57.1483 14.9398C57.2533 15.1354 57.405 15.2995 57.5889 15.4164C58.8306 16.2607 60.2804 16.715 61.7644 16.7248C64.1628 16.7248 65.9999 15.5659 65.9999 13.0115V12.9691C65.9951 10.8633 64.1963 10.0907 62.647 9.5549Z" fill="white"/>
<path d="M30.7656 4.78738C29.1323 4.78738 28.0794 5.58237 27.3143 6.65648V2.34011C27.3155 2.31604 27.3155 2.29191 27.3143 2.26784V1.62985C27.3143 1.19759 27.1491 0.78303 26.8549 0.477373C26.5608 0.171716 26.1618 0 25.7458 0C25.3298 0 24.9309 0.171716 24.6367 0.477373C24.3425 0.78303 24.1773 1.19759 24.1773 1.62985V2.16815C24.1773 2.22547 24.1773 2.28279 24.1773 2.3426V15.0076C24.1744 15.4405 24.3372 15.8569 24.6298 16.1651C24.9223 16.4734 25.3208 16.6482 25.7374 16.6512C26.1541 16.6541 26.5548 16.485 26.8514 16.181C27.148 15.877 27.3163 15.463 27.3191 15.03V15.0076C27.7252 15.5543 28.2489 15.9944 28.8483 16.2926C29.4476 16.5908 30.106 16.7388 30.7704 16.7247C33.3942 16.7247 35.8069 14.6213 35.8069 10.7785V10.7361C35.8069 6.9032 33.3486 4.78738 30.7656 4.78738ZM30.3099 13.7366C29.7282 13.7371 29.1595 13.5583 28.6756 13.2229C28.1918 12.8875 27.8145 12.4105 27.5916 11.8522C27.3687 11.294 27.3101 10.6796 27.4233 10.0867C27.5365 9.49389 27.8164 8.94924 28.2275 8.52169C28.6386 8.09414 29.1625 7.8029 29.733 7.68481C30.3034 7.56672 30.8948 7.62708 31.4322 7.85826C31.9696 8.08943 32.429 8.48105 32.7522 8.98355C33.0754 9.48605 33.2479 10.0769 33.2479 10.6813C33.2479 11.4912 32.9384 12.2679 32.3875 12.8408C31.8366 13.4138 31.0893 13.736 30.3099 13.7366Z" fill="white"/>
<path d="M23.254 10.7037C23.2525 9.4804 22.89 8.28699 22.2154 7.2844C21.5408 6.28182 20.5866 5.51827 19.4814 5.09672C18.3762 4.67518 17.1732 4.6159 16.0346 4.92689C14.896 5.23788 13.8766 5.90417 13.1137 6.83593L11.4684 8.81219L10.0606 10.5019L8.07475 12.8843C7.75321 13.2162 7.36263 13.4668 6.93313 13.617C6.43568 13.7894 5.90296 13.8207 5.38998 13.7076C4.87701 13.5945 4.4024 13.3412 4.01518 12.9738C3.62795 12.6063 3.34217 12.1381 3.18734 11.6175C3.03251 11.0969 3.01425 10.5428 3.13445 10.0124C3.25466 9.48203 3.50896 8.99462 3.87109 8.60052C4.23323 8.20642 4.69005 7.91994 5.19438 7.77067C5.69871 7.62139 6.23225 7.61474 6.73988 7.7514C7.24751 7.88806 7.71082 8.16307 8.08194 8.54803C8.27668 8.75515 8.52654 8.89707 8.79945 8.9556C9.07236 9.01414 9.35588 8.9866 9.61362 8.87652C9.87137 8.76645 10.0916 8.57886 10.246 8.33783C10.4004 8.0968 10.482 7.81332 10.4803 7.52376C10.4803 7.46894 10.4803 7.41411 10.4803 7.35928V1.60495C10.4644 1.18339 10.2921 0.784582 9.99948 0.49215C9.70683 0.199718 9.31659 0.036377 8.91058 0.036377C8.50457 0.036377 8.11433 0.199718 7.82168 0.49215C7.52903 0.784582 7.35671 1.18339 7.34085 1.60495V2.14325V4.8846C7.21134 4.85469 7.07943 4.82479 6.94512 4.80236C6.63663 4.75035 6.32468 4.72368 6.01216 4.72261C5.25626 4.68841 4.50128 4.80925 3.79033 5.07823C3.07937 5.34721 2.42637 5.75907 1.86859 6.29029C0.74212 7.36312 0.0719303 8.857 0.00545944 10.4433C-0.0610115 12.0296 0.481681 13.5783 1.51415 14.7489C2.54662 15.9194 3.9843 16.6158 5.5109 16.6848C5.67639 16.6998 5.84187 16.7098 6.01216 16.7098C6.14167 16.7098 6.27118 16.7098 6.39829 16.6948H6.47504C6.87421 16.6628 7.26896 16.5868 7.65264 16.468C8.4644 16.2163 9.21229 15.7805 9.84234 15.192L10.8017 14.0656L12.0416 12.6027C12.4678 13.956 13.3445 15.1069 14.5142 15.8485C15.684 16.5901 17.0699 16.8738 18.4229 16.6485C19.776 16.4233 21.0073 15.7039 21.8955 14.6196C22.7836 13.5354 23.2705 12.1575 23.2684 10.7336L23.254 10.7037ZM17.4979 13.7765C16.7161 13.7759 15.9665 13.453 15.4135 12.8789C14.8605 12.3047 14.5492 11.526 14.5479 10.7137C14.5498 10.117 14.7217 9.53425 15.042 9.03898L13.6222 10.7137L15.042 9.03898C15.0756 8.98415 15.1115 8.92932 15.1523 8.8745L15.4401 8.52809C15.4857 8.48074 15.5361 8.43588 15.5864 8.39102C16.0134 8.01086 16.5362 7.76565 17.093 7.68437C17.6499 7.6031 18.2175 7.68915 18.7287 7.93237C19.24 8.17559 19.6736 8.5658 19.9782 9.0569C20.2829 9.54799 20.4458 10.1194 20.4479 10.7037C20.4485 11.107 20.3726 11.5065 20.2245 11.8793C20.0765 12.252 19.8591 12.5908 19.5849 12.8762C19.3106 13.1616 18.985 13.388 18.6265 13.5425C18.2679 13.697 17.8836 13.7765 17.4955 13.7765H17.4979Z" fill="white"/>
<path style="mix-blend-mode:multiply" opacity="0.5" d="M23.2612 10.7013H20.4503C20.4503 11.5136 20.1397 12.2926 19.587 12.867C19.0342 13.4414 18.2844 13.7641 17.5027 13.7641C16.7209 13.7641 15.9712 13.4414 15.4184 12.867C14.8657 12.2926 14.5551 11.5136 14.5551 10.7013C14.5542 10.1071 14.721 9.52572 15.0348 9.02905L13.6149 10.7013L12.8643 11.6034L12.0344 12.5828C12.4606 13.9363 13.3375 15.0873 14.5075 15.8289C15.6775 16.5705 17.0637 16.854 18.4169 16.6285C19.7701 16.4029 21.0014 15.683 21.8894 14.5983C22.7774 13.5136 23.2638 12.1353 23.2612 10.7112V10.7013Z" fill="url(#paint0_linear_208_181)"/>
<defs>
<linearGradient id="paint0_linear_208_181" x1="12.0344" y1="12.8619" x2="23.2612" y2="12.8619" gradientUnits="userSpaceOnUse">
<stop/>
<stop offset="0.05" stop-color="#2A2A2A"/>
<stop offset="0.12" stop-color="#636363"/>
<stop offset="0.19" stop-color="#939393"/>
<stop offset="0.25" stop-color="#B8B8B8"/>
<stop offset="0.31" stop-color="#D2D2D2"/>
<stop offset="0.36" stop-color="#E2E2E2"/>
<stop offset="0.41" stop-color="#E8E8E8"/>
<stop offset="0.53" stop-color="#F4F4F4"/>
<stop offset="0.71" stop-color="#FCFCFC"/>
<stop offset="1" stop-color="white"/>
</linearGradient>
</defs>
</svg>
