<svg width="133" height="19" viewBox="0 0 133 19" fill="none" xmlns="http://www.w3.org/2000/svg">
<g clip-path="url(#clip0_208_159)">
<path d="M3.41563 12.5C3.36229 12.5 3.31563 12.48 3.27563 12.44C3.23563 12.4 3.21563 12.3533 3.21563 12.3L3.23563 12.19L5.71563 5.72C5.76896 5.57333 5.87563 5.5 6.03563 5.5H6.67563C6.83563 5.5 6.94229 5.57333 6.99563 5.72L9.47563 12.19L9.49563 12.3C9.49563 12.3533 9.47229 12.4 9.42563 12.44C9.38563 12.48 9.33896 12.5 9.28563 12.5H8.81563C8.74896 12.5 8.69229 12.4833 8.64563 12.45C8.60563 12.41 8.57896 12.37 8.56563 12.33L8.00563 10.89H4.69563L4.14563 12.33C4.09229 12.4433 4.00896 12.5 3.89563 12.5H3.41563ZM4.98563 10.06H7.72563L6.35563 6.47L4.98563 10.06ZM12.4967 14.7C11.9434 14.7 11.5001 14.6067 11.1667 14.42C10.8334 14.2333 10.5967 14.02 10.4567 13.78C10.3234 13.54 10.2567 13.3333 10.2567 13.16C10.2567 13.1 10.2801 13.0467 10.3267 13C10.3734 12.96 10.4267 12.94 10.4867 12.94H10.9267C10.9867 12.94 11.0367 12.9533 11.0767 12.98C11.1167 13.0133 11.1501 13.07 11.1767 13.15C11.3634 13.6833 11.7867 13.95 12.4467 13.95C12.9467 13.95 13.3167 13.8433 13.5567 13.63C13.7967 13.4167 13.9167 13.04 13.9167 12.5V11.81C13.5301 12.3033 12.9901 12.55 12.2967 12.55C11.5901 12.55 11.0601 12.3233 10.7067 11.87C10.3601 11.4167 10.1767 10.8433 10.1567 10.15L10.1467 9.87L10.1567 9.6C10.1767 8.91333 10.3601 8.34333 10.7067 7.89C11.0601 7.43 11.5901 7.2 12.2967 7.2C12.9967 7.2 13.5434 7.45667 13.9367 7.97V7.54C13.9367 7.47333 13.9567 7.41667 13.9967 7.37C14.0434 7.32333 14.1001 7.3 14.1667 7.3H14.5967C14.6634 7.3 14.7167 7.32333 14.7567 7.37C14.8034 7.41667 14.8267 7.47333 14.8267 7.54V12.39C14.8267 13.93 14.0501 14.7 12.4967 14.7ZM12.4767 11.77C12.9434 11.77 13.2934 11.62 13.5267 11.32C13.7667 11.0133 13.8967 10.6467 13.9167 10.22C13.9234 10.16 13.9267 10.0433 13.9267 9.87C13.9267 9.70333 13.9234 9.59 13.9167 9.53C13.8967 9.10333 13.7667 8.74 13.5267 8.44C13.2934 8.13333 12.9434 7.98 12.4767 7.98C11.9967 7.98 11.6467 8.13333 11.4267 8.44C11.2134 8.74 11.0967 9.13 11.0767 9.61L11.0667 9.87L11.0767 10.14C11.0967 10.62 11.2134 11.0133 11.4267 11.32C11.6467 11.62 11.9967 11.77 12.4767 11.77ZM18.394 12.6C17.714 12.6 17.1707 12.39 16.764 11.97C16.3573 11.5433 16.134 10.9633 16.094 10.23L16.084 9.89L16.094 9.56C16.134 8.84 16.3573 8.26667 16.764 7.84C17.1707 7.41333 17.714 7.2 18.394 7.2C19.1273 7.2 19.694 7.43333 20.094 7.9C20.5007 8.36667 20.704 9 20.704 9.8V9.98C20.704 10.0467 20.6807 10.1033 20.634 10.15C20.594 10.19 20.5407 10.21 20.474 10.21H17.004V10.3C17.024 10.7333 17.1573 11.1033 17.404 11.41C17.6507 11.7167 17.9773 11.87 18.384 11.87C18.6973 11.87 18.9507 11.81 19.144 11.69C19.344 11.5633 19.494 11.4333 19.594 11.3C19.654 11.22 19.7007 11.1733 19.734 11.16C19.7673 11.14 19.824 11.13 19.904 11.13H20.344C20.404 11.13 20.454 11.1467 20.494 11.18C20.5407 11.2133 20.564 11.2567 20.564 11.31C20.564 11.4567 20.474 11.6333 20.294 11.84C20.114 12.0467 19.8573 12.2267 19.524 12.38C19.1973 12.5267 18.8207 12.6 18.394 12.6ZM19.794 9.53V9.5C19.794 9.03333 19.6673 8.65333 19.414 8.36C19.1607 8.06667 18.8207 7.92 18.394 7.92C17.9607 7.92 17.6207 8.06667 17.374 8.36C17.1273 8.65333 17.004 9.03333 17.004 9.5V9.53H19.794ZM22.1499 12.5C22.0833 12.5 22.0266 12.48 21.9799 12.44C21.9399 12.3933 21.9199 12.3367 21.9199 12.27V7.53C21.9199 7.46333 21.9399 7.41 21.9799 7.37C22.0266 7.32333 22.0833 7.3 22.1499 7.3H22.5799C22.6533 7.3 22.7099 7.32 22.7499 7.36C22.7899 7.4 22.8099 7.45667 22.8099 7.53V7.97C23.0099 7.72333 23.2399 7.53333 23.4999 7.4C23.7666 7.26667 24.0966 7.2 24.4899 7.2C25.1299 7.2 25.6266 7.40667 25.9799 7.82C26.3333 8.22667 26.5099 8.76667 26.5099 9.44V12.27C26.5099 12.3367 26.4866 12.3933 26.4399 12.44C26.3999 12.48 26.3466 12.5 26.2799 12.5H25.8199C25.7533 12.5 25.6966 12.48 25.6499 12.44C25.6099 12.3933 25.5899 12.3367 25.5899 12.27V9.5C25.5899 9.02 25.4733 8.64667 25.2399 8.38C25.0066 8.11333 24.6733 7.98 24.2399 7.98C23.8133 7.98 23.4733 8.11667 23.2199 8.39C22.9666 8.65667 22.8399 9.02667 22.8399 9.5V12.27C22.8399 12.3367 22.8166 12.3933 22.7699 12.44C22.7299 12.48 22.6766 12.5 22.6099 12.5H22.1499ZM30.0351 12.6C29.3217 12.6 28.7651 12.4 28.3651 12C27.9651 11.5933 27.7551 11.0267 27.7351 10.3L27.7251 9.9L27.7351 9.5C27.7551 8.77333 27.9651 8.21 28.3651 7.81C28.7651 7.40333 29.3217 7.2 30.0351 7.2C30.5151 7.2 30.9184 7.28667 31.2451 7.46C31.5784 7.62667 31.8251 7.83667 31.9851 8.09C32.1517 8.34333 32.2417 8.59667 32.2551 8.85C32.2617 8.91 32.2384 8.96333 32.1851 9.01C32.1384 9.05667 32.0851 9.08 32.0251 9.08H31.5851C31.5184 9.08 31.4684 9.06667 31.4351 9.04C31.4017 9.00667 31.3684 8.95 31.3351 8.87C31.2151 8.54333 31.0484 8.31333 30.8351 8.18C30.6284 8.04 30.3651 7.97 30.0451 7.97C29.6251 7.97 29.2917 8.1 29.0451 8.36C28.7984 8.62 28.6651 9.01667 28.6451 9.55L28.6351 9.9L28.6451 10.25C28.6651 10.7833 28.7984 11.18 29.0451 11.44C29.2917 11.7 29.6251 11.83 30.0451 11.83C30.3717 11.83 30.6384 11.7633 30.8451 11.63C31.0517 11.49 31.2151 11.2567 31.3351 10.93C31.3684 10.85 31.4017 10.7967 31.4351 10.77C31.4684 10.7367 31.5184 10.72 31.5851 10.72H32.0251C32.0851 10.72 32.1384 10.7433 32.1851 10.79C32.2384 10.8367 32.2617 10.89 32.2551 10.95C32.2417 11.1967 32.1517 11.4467 31.9851 11.7C31.8251 11.9533 31.5784 12.1667 31.2451 12.34C30.9184 12.5133 30.5151 12.6 30.0351 12.6ZM33.6031 6.32C33.5365 6.32 33.4798 6.3 33.4331 6.26C33.3931 6.21333 33.3731 6.15667 33.3731 6.09V5.57C33.3731 5.50333 33.3931 5.44667 33.4331 5.4C33.4798 5.35333 33.5365 5.33 33.6031 5.33H34.1931C34.2598 5.33 34.3165 5.35333 34.3631 5.4C34.4098 5.44667 34.4331 5.50333 34.4331 5.57V6.09C34.4331 6.15667 34.4098 6.21333 34.3631 6.26C34.3165 6.3 34.2598 6.32 34.1931 6.32H33.6031ZM33.6831 12.5C33.6165 12.5 33.5598 12.48 33.5131 12.44C33.4731 12.3933 33.4531 12.3367 33.4531 12.27V7.53C33.4531 7.46333 33.4731 7.41 33.5131 7.37C33.5598 7.32333 33.6165 7.3 33.6831 7.3H34.1231C34.1898 7.3 34.2431 7.32333 34.2831 7.37C34.3298 7.41 34.3531 7.46333 34.3531 7.53V12.27C34.3531 12.3367 34.3298 12.3933 34.2831 12.44C34.2431 12.48 34.1898 12.5 34.1231 12.5H33.6831ZM37.2955 12.6C36.9688 12.6 36.6655 12.5333 36.3855 12.4C36.1121 12.2667 35.8921 12.0867 35.7255 11.86C35.5655 11.6267 35.4855 11.37 35.4855 11.09C35.4855 10.65 35.6655 10.29 36.0255 10.01C36.3855 9.73 36.8755 9.54333 37.4955 9.45L38.9955 9.24V8.95C38.9955 8.26333 38.5988 7.92 37.8055 7.92C37.4988 7.92 37.2521 7.98333 37.0655 8.11C36.8788 8.23 36.7421 8.37333 36.6555 8.54C36.6288 8.60667 36.5988 8.65333 36.5655 8.68C36.5388 8.7 36.4988 8.71 36.4455 8.71H36.0555C35.9955 8.71 35.9421 8.69 35.8955 8.65C35.8555 8.60333 35.8355 8.55 35.8355 8.49C35.8355 8.33667 35.9055 8.16 36.0455 7.96C36.1921 7.75333 36.4155 7.57667 36.7155 7.43C37.0155 7.27667 37.3821 7.2 37.8155 7.2C38.5621 7.2 39.0955 7.37333 39.4155 7.72C39.7421 8.06667 39.9055 8.5 39.9055 9.02V12.27C39.9055 12.3367 39.8821 12.3933 39.8355 12.44C39.7955 12.48 39.7421 12.5 39.6755 12.5H39.2355C39.1688 12.5 39.1155 12.48 39.0755 12.44C39.0355 12.3933 39.0155 12.3367 39.0155 12.27V11.83C38.8688 12.05 38.6555 12.2333 38.3755 12.38C38.0955 12.5267 37.7355 12.6 37.2955 12.6ZM37.4955 11.87C37.9355 11.87 38.2955 11.7267 38.5755 11.44C38.8555 11.1533 38.9955 10.7367 38.9955 10.19V9.91L37.8255 10.08C37.3455 10.1467 36.9821 10.26 36.7355 10.42C36.4888 10.58 36.3655 10.78 36.3655 11.02C36.3655 11.2933 36.4755 11.5033 36.6955 11.65C36.9221 11.7967 37.1888 11.87 37.4955 11.87ZM46.1745 12.6C45.6278 12.6 45.1511 12.5133 44.7445 12.34C44.3445 12.1667 44.0378 11.94 43.8245 11.66C43.6178 11.3733 43.5078 11.0667 43.4945 10.74C43.4945 10.6867 43.5145 10.64 43.5545 10.6C43.5945 10.56 43.6445 10.54 43.7045 10.54H44.1945C44.3145 10.54 44.3978 10.6067 44.4445 10.74C44.5045 11.02 44.6745 11.2633 44.9545 11.47C45.2411 11.67 45.6478 11.77 46.1745 11.77C46.7411 11.77 47.1645 11.67 47.4445 11.47C47.7245 11.27 47.8645 10.9933 47.8645 10.64C47.8645 10.4133 47.7945 10.2267 47.6545 10.08C47.5211 9.93333 47.3178 9.80667 47.0445 9.7C46.7778 9.58667 46.3745 9.45 45.8345 9.29C45.3211 9.14333 44.9111 8.98667 44.6045 8.82C44.3045 8.65333 44.0778 8.45 43.9245 8.21C43.7711 7.96333 43.6945 7.65333 43.6945 7.28C43.6945 6.92 43.7911 6.6 43.9845 6.32C44.1778 6.03333 44.4578 5.81 44.8245 5.65C45.1911 5.48333 45.6245 5.4 46.1245 5.4C46.6445 5.4 47.0878 5.49333 47.4545 5.68C47.8278 5.86 48.1111 6.09 48.3045 6.37C48.4978 6.64333 48.6011 6.92 48.6145 7.2C48.6145 7.26 48.5945 7.31 48.5545 7.35C48.5145 7.39 48.4645 7.41 48.4045 7.41H47.9045C47.8511 7.41 47.8011 7.39333 47.7545 7.36C47.7078 7.32667 47.6745 7.27667 47.6545 7.21C47.6145 6.92333 47.4545 6.68667 47.1745 6.5C46.8945 6.31333 46.5445 6.22 46.1245 6.22C45.6711 6.22 45.3111 6.31 45.0445 6.49C44.7778 6.66333 44.6445 6.92333 44.6445 7.27C44.6445 7.50333 44.7045 7.69333 44.8245 7.84C44.9511 7.98667 45.1411 8.11667 45.3945 8.23C45.6545 8.34333 46.0311 8.47333 46.5245 8.62C47.0911 8.78 47.5345 8.94 47.8545 9.1C48.1811 9.26 48.4245 9.46 48.5845 9.7C48.7445 9.93333 48.8245 10.2367 48.8245 10.61C48.8245 11.2367 48.5845 11.7267 48.1045 12.08C47.6311 12.4267 46.9878 12.6 46.1745 12.6ZM50.3656 12.5C50.299 12.5 50.2456 12.48 50.2056 12.44C50.1656 12.3933 50.1456 12.3367 50.1456 12.27V5.74C50.1456 5.66667 50.1656 5.61 50.2056 5.57C50.2456 5.52333 50.299 5.5 50.3656 5.5H54.4756C54.549 5.5 54.6056 5.52333 54.6456 5.57C54.6923 5.61 54.7156 5.66667 54.7156 5.74V6.1C54.7156 6.16667 54.6923 6.22 54.6456 6.26C54.6056 6.3 54.549 6.32 54.4756 6.32H51.0656V8.55H54.2556C54.329 8.55 54.3856 8.57333 54.4256 8.62C54.4723 8.66 54.4956 8.71667 54.4956 8.79V9.13C54.4956 9.19667 54.4723 9.25333 54.4256 9.3C54.3856 9.34 54.329 9.36 54.2556 9.36H51.0656V11.67H54.5556C54.629 11.67 54.6856 11.6933 54.7256 11.74C54.7723 11.78 54.7956 11.8367 54.7956 11.91V12.27C54.7956 12.3367 54.7723 12.3933 54.7256 12.44C54.679 12.48 54.6223 12.5 54.5556 12.5H50.3656ZM58.632 12.6C57.7653 12.6 57.0953 12.3733 56.622 11.92C56.1486 11.46 55.8986 10.77 55.872 9.85C55.8653 9.65 55.862 9.36667 55.862 9C55.862 8.63333 55.8653 8.35333 55.872 8.16C55.8986 7.25333 56.1553 6.56667 56.642 6.1C57.1353 5.63333 57.7986 5.4 58.632 5.4C59.4653 5.4 60.1253 5.63333 60.612 6.1C61.0986 6.56667 61.3553 7.25333 61.382 8.16C61.3953 8.54667 61.402 8.82667 61.402 9C61.402 9.16667 61.3953 9.45 61.382 9.85C61.3553 10.77 61.1053 11.46 60.632 11.92C60.1653 12.3733 59.4986 12.6 58.632 12.6ZM58.632 11.77C59.1653 11.77 59.592 11.61 59.912 11.29C60.232 10.9633 60.4053 10.4667 60.432 9.8C60.4453 9.4 60.452 9.13333 60.452 9C60.452 8.85333 60.4453 8.58667 60.432 8.2C60.4053 7.53333 60.232 7.03667 59.912 6.71C59.592 6.38333 59.1653 6.22 58.632 6.22C58.0986 6.22 57.6686 6.38333 57.342 6.71C57.022 7.03667 56.852 7.53333 56.832 8.2C56.8253 8.39333 56.822 8.66 56.822 9C56.822 9.33333 56.8253 9.6 56.832 9.8C56.852 10.4667 57.022 10.9633 57.342 11.29C57.662 11.61 58.092 11.77 58.632 11.77Z" fill="white"/>
<path d="M80.6103 10.7036L79.8572 11.6033L80.6223 10.7036H80.6103Z" fill="#A3195B"/>
<path d="M72.9978 16.6973C72.8276 16.6973 72.6621 16.6973 72.4966 16.6724C72.6645 16.6873 72.83 16.6973 72.9978 16.6973Z" fill="#A3195B"/>
<path d="M73.0002 16.6973C73.1298 16.6973 73.2593 16.6973 73.3864 16.6824C73.2593 16.6824 73.1298 16.6973 73.0002 16.6973Z" fill="#A3195B"/>
<path d="M112.249 4.87207C111.833 4.87207 111.433 5.04405 111.139 5.35017C110.844 5.6563 110.678 6.07149 110.678 6.50442V11.4214C110.678 12.969 109.913 13.7615 108.717 13.7615C107.52 13.7615 106.815 12.969 106.815 11.4214V6.50442C106.815 6.07149 106.649 5.6563 106.355 5.35017C106.06 5.04405 105.66 4.87207 105.244 4.87207C104.827 4.87207 104.428 5.04405 104.133 5.35017C103.838 5.6563 103.673 6.07149 103.673 6.50442V12.4531C103.673 15.0923 105.059 16.7246 107.436 16.7246C109.026 16.7246 109.957 15.8449 110.678 14.878V15.0076C110.678 15.4405 110.844 15.8557 111.139 16.1618C111.433 16.4679 111.833 16.6399 112.249 16.6399C112.666 16.6399 113.066 16.4679 113.36 16.1618C113.655 15.8557 113.82 15.4405 113.82 15.0076V6.50442C113.82 6.07149 113.655 5.6563 113.36 5.35017C113.066 5.04405 112.666 4.87207 112.249 4.87207Z" fill="white"/>
<path d="M120.039 9.5549C118.84 9.12377 117.787 8.82471 117.787 8.17925V8.14934C117.787 7.69827 118.181 7.35435 118.943 7.35435C119.605 7.35435 120.452 7.63347 121.342 8.08455C121.518 8.18731 121.717 8.23975 121.92 8.23657C122.084 8.24023 122.248 8.20957 122.401 8.1464C122.555 8.08323 122.694 7.98882 122.812 7.86874C122.929 7.74867 123.023 7.60535 123.086 7.44724C123.149 7.28913 123.182 7.11943 123.181 6.94814C123.184 6.69076 123.115 6.43802 122.983 6.22045C122.85 6.00287 122.66 5.82976 122.435 5.72201C121.372 5.15939 120.199 4.8584 119.006 4.84229C116.775 4.84229 114.955 6.15315 114.955 8.49326V8.53562C114.955 10.7785 116.713 11.5262 118.262 11.9922C119.48 12.3785 120.555 12.6152 120.555 13.323V13.3679C120.555 13.8812 120.142 14.2252 119.233 14.2252C118.163 14.1743 117.127 13.8182 116.238 13.1959C116.049 13.0833 115.835 13.0241 115.618 13.0244C115.4 13.0246 115.186 13.0843 114.998 13.1973C114.809 13.3104 114.653 13.4729 114.544 13.6686C114.435 13.8643 114.377 14.0863 114.377 14.3124C114.375 14.5364 114.43 14.757 114.535 14.9526C114.64 15.1483 114.792 15.3123 114.976 15.4289C116.217 16.2727 117.666 16.727 119.149 16.7372C121.548 16.7372 123.387 15.5784 123.387 13.024V12.9816C123.387 10.8633 121.589 10.0907 120.039 9.5549Z" fill="white"/>
<path d="M129.647 9.5549C128.448 9.12376 127.395 8.82471 127.395 8.17925V8.14934C127.395 7.69827 127.788 7.35435 128.553 7.35435C129.213 7.35435 130.062 7.63347 130.952 8.08455C131.128 8.1873 131.328 8.23975 131.53 8.23657C131.695 8.24023 131.858 8.20957 132.012 8.1464C132.165 8.08322 132.304 7.98882 132.422 7.86874C132.539 7.74867 132.633 7.60535 132.696 7.44724C132.76 7.28913 132.792 7.11943 132.791 6.94814C132.794 6.69109 132.725 6.43868 132.593 6.22119C132.462 6.00371 132.272 5.83038 132.048 5.72201C130.984 5.15936 129.809 4.85837 128.616 4.84229C126.385 4.84229 124.567 6.15315 124.567 8.49326V8.53562C124.567 10.7785 126.323 11.5262 127.872 11.9922C129.093 12.3785 130.167 12.6152 130.167 13.323V13.3679C130.167 13.8812 129.753 14.2252 128.844 14.2252C127.773 14.1697 126.737 13.8094 125.85 13.1834C125.662 13.0708 125.448 13.0117 125.23 13.0119C125.013 13.0122 124.799 13.0718 124.61 13.1849C124.422 13.2979 124.265 13.4604 124.156 13.6561C124.047 13.8518 123.99 14.0738 123.989 14.2999C123.988 14.5239 124.043 14.7442 124.148 14.9398C124.253 15.1354 124.405 15.2995 124.589 15.4164C125.831 16.2607 127.28 16.715 128.764 16.7248C131.163 16.7248 133 15.5659 133 13.0115V12.9691C132.995 10.8633 131.196 10.0907 129.647 9.5549Z" fill="white"/>
<path d="M97.7656 4.78738C96.1323 4.78738 95.0794 5.58237 94.3143 6.65648V2.34011C94.3155 2.31604 94.3155 2.29191 94.3143 2.26784V1.62985C94.3143 1.19759 94.1491 0.78303 93.8549 0.477373C93.5608 0.171716 93.1618 0 92.7458 0C92.3298 0 91.9309 0.171716 91.6367 0.477373C91.3425 0.78303 91.1773 1.19759 91.1773 1.62985V2.16815C91.1773 2.22547 91.1773 2.28279 91.1773 2.3426V15.0076C91.1744 15.4405 91.3372 15.8569 91.6298 16.1651C91.9223 16.4734 92.3208 16.6482 92.7374 16.6512C93.1541 16.6541 93.5548 16.485 93.8514 16.181C94.148 15.877 94.3163 15.463 94.3191 15.03V15.0076C94.7252 15.5543 95.2489 15.9944 95.8483 16.2926C96.4476 16.5908 97.106 16.7388 97.7704 16.7247C100.394 16.7247 102.807 14.6213 102.807 10.7785V10.7361C102.807 6.9032 100.349 4.78738 97.7656 4.78738ZM97.3099 13.7366C96.7282 13.7371 96.1595 13.5583 95.6756 13.2229C95.1918 12.8875 94.8145 12.4105 94.5916 11.8522C94.3687 11.294 94.3101 10.6796 94.4233 10.0867C94.5365 9.49389 94.8164 8.94924 95.2275 8.52169C95.6386 8.09414 96.1625 7.8029 96.733 7.68481C97.3034 7.56672 97.8948 7.62708 98.4322 7.85826C98.9696 8.08943 99.429 8.48105 99.7522 8.98355C100.075 9.48605 100.248 10.0769 100.248 10.6813C100.248 11.4912 99.9384 12.2679 99.3875 12.8408C98.8366 13.4138 98.0893 13.736 97.3099 13.7366Z" fill="white"/>
<path d="M90.254 10.7037C90.2525 9.4804 89.89 8.28699 89.2154 7.2844C88.5408 6.28182 87.5866 5.51827 86.4814 5.09672C85.3762 4.67518 84.1732 4.6159 83.0346 4.92689C81.896 5.23788 80.8766 5.90417 80.1137 6.83593L78.4684 8.81219L77.0606 10.5019L75.0747 12.8843C74.7532 13.2162 74.3626 13.4668 73.9331 13.617C73.4357 13.7894 72.903 13.8207 72.39 13.7076C71.877 13.5945 71.4024 13.3412 71.0152 12.9738C70.628 12.6063 70.3422 12.1381 70.1873 11.6175C70.0325 11.0969 70.0143 10.5428 70.1345 10.0124C70.2547 9.48203 70.509 8.99462 70.8711 8.60052C71.2332 8.20642 71.6901 7.91994 72.1944 7.77067C72.6987 7.62139 73.2322 7.61474 73.7399 7.7514C74.2475 7.88806 74.7108 8.16307 75.0819 8.54803C75.2767 8.75515 75.5265 8.89707 75.7995 8.9556C76.0724 9.01414 76.3559 8.9866 76.6136 8.87652C76.8714 8.76645 77.0916 8.57886 77.246 8.33783C77.4004 8.0968 77.482 7.81332 77.4803 7.52376C77.4803 7.46894 77.4803 7.41411 77.4803 7.35928V1.60495C77.4644 1.18339 77.2921 0.784582 76.9995 0.49215C76.7068 0.199718 76.3166 0.036377 75.9106 0.036377C75.5046 0.036377 75.1143 0.199718 74.8217 0.49215C74.529 0.784582 74.3567 1.18339 74.3409 1.60495V2.14325V4.8846C74.2113 4.85469 74.0794 4.82479 73.9451 4.80236C73.6366 4.75035 73.3247 4.72368 73.0122 4.72261C72.2563 4.68841 71.5013 4.80925 70.7903 5.07823C70.0794 5.34721 69.4264 5.75907 68.8686 6.29029C67.7421 7.36312 67.0719 8.857 67.0055 10.4433C66.939 12.0296 67.4817 13.5783 68.5142 14.7489C69.5466 15.9194 70.9843 16.6158 72.5109 16.6848C72.6764 16.6998 72.8419 16.7098 73.0122 16.7098C73.1417 16.7098 73.2712 16.7098 73.3983 16.6948H73.475C73.8742 16.6628 74.269 16.5868 74.6526 16.468C75.4644 16.2163 76.2123 15.7805 76.8423 15.192L77.8017 14.0656L79.0416 12.6027C79.4678 13.956 80.3445 15.1069 81.5142 15.8485C82.684 16.5901 84.0699 16.8738 85.4229 16.6485C86.776 16.4233 88.0073 15.7039 88.8955 14.6196C89.7836 13.5354 90.2705 12.1575 90.2684 10.7336L90.254 10.7037ZM84.4979 13.7765C83.7161 13.7759 82.9665 13.453 82.4135 12.8789C81.8605 12.3047 81.5492 11.526 81.5479 10.7137C81.5498 10.117 81.7217 9.53425 82.042 9.03898L80.6222 10.7137L82.042 9.03898C82.0756 8.98415 82.1115 8.92932 82.1523 8.8745L82.4401 8.52809C82.4857 8.48074 82.5361 8.43588 82.5864 8.39102C83.0134 8.01086 83.5362 7.76565 84.093 7.68437C84.6499 7.6031 85.2175 7.68915 85.7287 7.93237C86.24 8.17559 86.6736 8.5658 86.9782 9.0569C87.2829 9.54799 87.4458 10.1194 87.4479 10.7037C87.4485 11.107 87.3726 11.5065 87.2245 11.8793C87.0765 12.252 86.8591 12.5908 86.5849 12.8762C86.3106 13.1616 85.985 13.388 85.6265 13.5425C85.2679 13.697 84.8836 13.7765 84.4955 13.7765H84.4979Z" fill="white"/>
<path style="mix-blend-mode:multiply" opacity="0.5" d="M90.2612 10.7013H87.4503C87.4503 11.5136 87.1397 12.2926 86.587 12.867C86.0342 13.4414 85.2844 13.7641 84.5027 13.7641C83.7209 13.7641 82.9712 13.4414 82.4184 12.867C81.8657 12.2926 81.5551 11.5136 81.5551 10.7013C81.5542 10.1071 81.721 9.52572 82.0348 9.02905L80.6149 10.7013L79.8643 11.6034L79.0344 12.5828C79.4606 13.9363 80.3375 15.0873 81.5075 15.8289C82.6775 16.5705 84.0637 16.854 85.4169 16.6285C86.7701 16.4029 88.0014 15.683 88.8894 14.5983C89.7774 13.5136 90.2638 12.1353 90.2612 10.7112V10.7013Z" fill="url(#paint0_linear_208_159)"/>
</g>
<defs>
<linearGradient id="paint0_linear_208_159" x1="79.0344" y1="12.8619" x2="90.2612" y2="12.8619" gradientUnits="userSpaceOnUse">
<stop/>
<stop offset="0.05" stop-color="#2A2A2A"/>
<stop offset="0.12" stop-color="#636363"/>
<stop offset="0.19" stop-color="#939393"/>
<stop offset="0.25" stop-color="#B8B8B8"/>
<stop offset="0.31" stop-color="#D2D2D2"/>
<stop offset="0.36" stop-color="#E2E2E2"/>
<stop offset="0.41" stop-color="#E8E8E8"/>
<stop offset="0.53" stop-color="#F4F4F4"/>
<stop offset="0.71" stop-color="#FCFCFC"/>
<stop offset="1" stop-color="white"/>
</linearGradient>
<clipPath id="clip0_208_159">
<rect width="133" height="19" fill="white"/>
</clipPath>
</defs>
</svg>
