<svg width="117" height="96" viewBox="0 0 117 96" fill="none" xmlns="http://www.w3.org/2000/svg">
<path d="M116.187 58.2856C115.931 57.8499 115.539 57.5108 115.071 57.3214L106.752 53.9159L115.369 48.8419C116.458 48.2043 116.824 46.8044 116.187 45.715C115.931 45.2793 115.539 44.9402 115.071 44.7508L106.752 41.3453L115.369 36.2713C116.121 35.8185 116.548 34.9745 116.466 34.1C116.4 33.2364 115.851 32.4838 115.049 32.1573L82.2965 18.741L66.1603 11.8843C65.8984 11.7806 65.6192 11.7266 65.3375 11.7243L39.0535 1.02786C38.4081 0.759881 37.6756 0.802164 37.0651 1.14214L1.84447 20.9352C0.717112 21.5028 0.263427 22.877 0.831105 24.0044C1.08995 24.5186 1.53363 24.9163 2.07303 25.1177L10.5753 28.6375L1.84447 33.5058C0.745968 34.1275 0.359421 35.5222 0.981095 36.6207C1.22822 37.0573 1.61163 37.4001 2.07303 37.5969L10.5753 41.1167L1.89018 45.985C0.728826 46.4798 0.18886 47.8226 0.683686 48.9836C0.941669 49.589 1.44792 50.0536 2.07303 50.259L10.5753 53.7559L1.89018 58.6242C0.791679 59.2458 0.405132 60.6406 1.02681 61.7391C1.27393 62.1757 1.65734 62.5185 2.11874 62.7153L31.6711 75.2631C31.7791 75.3417 31.894 75.4105 32.014 75.4688L48.1729 82.3255L77.8853 94.9647C78.5538 95.2484 79.3175 95.1975 79.9423 94.8276L115.369 73.9832C116.458 73.3455 116.824 71.9456 116.187 70.8562C115.931 70.4206 115.539 70.0814 115.071 69.892L106.752 66.4865L115.369 61.4126C116.458 60.7752 116.824 59.375 116.187 58.2856ZM109.06 47.1966L78.5938 65.1383L51.3499 53.5733V45.9624L77.8625 57.2303C78.1444 57.3503 78.4476 57.4125 78.7538 57.4131C79.1641 57.4131 79.5666 57.3025 79.9195 57.0931L101.792 44.2254L109.06 47.1966ZM109.152 34.6031L78.5938 52.5448L53.8411 42.0312L81.7251 23.4039L109.152 34.6031ZM30.5512 69.8695L8.12978 60.3386L15.8321 56.0189L30.5741 62.2814L30.5512 69.8695ZM30.5512 57.2988L8.12978 47.768L15.8321 43.4026L30.5741 49.665L30.5512 57.2988ZM30.5512 44.7282L8.12978 35.2202L15.8321 30.9005L30.5741 37.163L30.5512 44.7282ZM8.12978 22.6496L38.345 5.66785L60.2636 14.6501L32.6539 33.0718L8.12978 22.6496ZM47.7844 40.6142C47.1544 41.0399 46.7776 41.751 46.7787 42.5112V76.7947L35.1452 71.8579V36.9116L65.429 16.73L76.6968 21.3011L47.7844 40.6142ZM109.06 72.3379L78.5938 90.2567L51.3499 78.6917V71.1037L77.8625 82.2572C78.531 82.5409 79.2946 82.4901 79.9195 82.1201L101.792 69.2523L109.06 72.3379ZM78.5938 77.6861L51.3499 66.1211V58.533L77.8853 69.8009C78.5538 70.0846 79.3175 70.0337 79.9423 69.6637L101.815 56.796L109.06 59.7672L78.5938 77.6861Z" fill="#2878CD"/>
</svg>
