<svg width="304" height="60" viewBox="0 0 304 60" fill="none" xmlns="http://www.w3.org/2000/svg">
<g clip-path="url(#clip0_608_174)">
<path d="M51.7 53.7001C50.9869 53.9927 50.2511 54.2268 49.5 54.4001C26.3 60.6001 4.40001 54.0001 0.60001 39.6001C-1.99999 30.0001 4.2 19.3001 15.5 11.4001L15.5 49.7001L33.4 49.7001L33.4 36.7001L51.7 36.7001L51.7 53.7001Z" fill="#142733"/>
<path d="M33.4 3.00006C34.1131 2.7074 34.8489 2.47328 35.6 2.30005C58.8 -3.89995 80.7 2.70006 84.6 17.1001C87.1 26.7001 80.9 37.4 69.6 45.3L69.6 7.00006L51.7 7.00006L51.7 20.0001L33.4 20.0001L33.4 3.00006Z" fill="#142733"/>
<path d="M99.5 53.9001L99.5 52.6001L96.7 52.6001L96.7 53.1001L98.9 53.1001L98.9 54.7001L98.5 55.4001C98.3043 55.6804 98.0239 55.8907 97.7 56.0001C97.4284 56.1596 97.1136 56.2295 96.8 56.2001C96.5293 56.2244 96.2564 56.1902 96 56.1001C95.7297 55.9924 95.4895 55.8209 95.3 55.6001L94.8 55.0001L94.8 50.3L95.3 49.7001C95.4895 49.4793 95.7297 49.3077 96 49.2001C96.2564 49.1099 96.5293 49.0758 96.8 49.1001C97.3087 49.0949 97.802 49.2744 98.1882 49.6055C98.5744 49.9366 98.8274 50.3966 98.9 50.9001L99.6 50.9001C99.454 50.2422 99.104 49.6473 98.6 49.2001C98.0976 48.7679 97.4624 48.5209 96.8 48.5001C96.4252 48.509 96.054 48.5765 95.7 48.7001C95.3437 48.8503 95.0333 49.0917 94.8 49.4001C94.5456 49.5806 94.3395 49.821 94.2 50.1001L94 51.1001L94 54.1001L94.2 55.2001C94.3395 55.4791 94.5456 55.7195 94.8 55.9001C95.0333 56.2084 95.3437 56.4499 95.7 56.6001C96.054 56.7236 96.4252 56.7911 96.8 56.8C97.2178 56.7943 97.6286 56.6916 98 56.5001C98.3448 56.3309 98.6512 56.0926 98.9 55.8C99.1542 55.5993 99.3309 55.3165 99.4 55.0001L99.6 53.9001" fill="#142733"/>
<path fill-rule="evenodd" clip-rule="evenodd" d="M110.8 52.0999L111.3 51.7C111.1 51.5 110.9 51.2999 110.7 51.2999C110.447 51.1876 110.176 51.12 109.9 51.0999C109.577 51.1067 109.263 51.2112 109 51.3999C108.73 51.5076 108.49 51.6791 108.3 51.8999L108.3 51.2L107.8 51.2L107.8 56.7L108.3 56.7L108.3 53.2999C108.326 52.9028 108.465 52.5213 108.7 52.2C108.823 52.0268 108.989 51.8892 109.183 51.8014C109.376 51.7136 109.589 51.6786 109.8 51.7C110.005 51.6854 110.211 51.7196 110.4 51.7999C110.487 51.8104 110.57 51.8437 110.64 51.8964C110.71 51.949 110.766 52.0192 110.8 52.0999Z" fill="#142733"/>
<path fill-rule="evenodd" clip-rule="evenodd" d="M122.3 56.7001L122.8 56.7001L122.8 51.2001L122.3 51.2001L122.3 54.6001C122.293 55.0317 122.154 55.4507 121.9 55.8001C121.582 56.1192 121.15 56.299 120.7 56.3001C120.49 56.312 120.28 56.2728 120.088 56.1857C119.897 56.0986 119.729 55.9663 119.6 55.8001C119.45 55.6413 119.336 55.4516 119.267 55.2443C119.198 55.0371 119.175 54.8172 119.2 54.6001L119.2 51.2001L118.6 51.2001L118.6 54.7001C118.576 54.9796 118.618 55.2608 118.722 55.5212C118.826 55.7816 118.99 56.0141 119.2 56.2001C119.375 56.3964 119.592 56.5518 119.833 56.6555C120.075 56.7592 120.337 56.8085 120.6 56.8001C120.915 56.8009 121.228 56.7395 121.52 56.6193C121.811 56.4992 122.077 56.3228 122.3 56.1001L122.3 56.7001Z" fill="#142733"/>
<path fill-rule="evenodd" clip-rule="evenodd" d="M135 54.0001L135 55.1001C134.931 55.4165 134.754 55.6993 134.5 55.9001C134.212 56.1271 133.865 56.266 133.5 56.3C133.145 56.2281 132.806 56.0926 132.5 55.9001C132.308 55.667 132.171 55.3935 132.1 55.1001L132.1 52.9001C132.152 52.5701 132.29 52.2597 132.5 52.0001C132.794 51.7976 133.143 51.6927 133.5 51.7001C133.678 51.6782 133.859 51.6936 134.031 51.7453C134.203 51.7969 134.363 51.8837 134.5 52.0001C134.64 52.1081 134.757 52.2437 134.843 52.3985C134.929 52.5532 134.982 52.7239 135 52.9001L135 54.0001ZM135.6 54.0001L135.4 52.7001L134.9 51.6001L134.3 51.3C134.054 51.1687 133.779 51.1001 133.5 51.1001C133.221 51.1001 132.946 51.1687 132.7 51.3C132.376 51.4094 132.096 51.6197 131.9 51.9001L131.9 51.2001L131.3 51.2001L131.3 59.3L131.9 59.3L131.9 56.0001C132.096 56.2804 132.376 56.4907 132.7 56.6001C132.946 56.7314 133.221 56.8 133.5 56.8C133.779 56.8 134.054 56.7314 134.3 56.6001L134.9 56.3C135.145 55.9741 135.315 55.5988 135.4 55.2001L135.6 54.0001Z" fill="#142733"/>
<path fill-rule="evenodd" clip-rule="evenodd" d="M147.2 54C147.25 54.2979 147.25 54.6021 147.2 54.9C147.148 55.23 147.01 55.5404 146.8 55.8C146.6 55.9 146.4 56.1 146.2 56.1C146.027 56.2299 145.816 56.3 145.6 56.3C145.384 56.3 145.173 56.2299 145 56.1C144.805 56.0583 144.629 55.9527 144.5 55.8C144.254 55.5641 144.11 55.2409 144.1 54.9L144.1 53C144.128 52.6636 144.269 52.3465 144.5 52.1L145 51.8C145.389 51.6704 145.81 51.6704 146.2 51.8L146.8 52.1L147.2 53C147.251 53.3314 147.251 53.6686 147.2 54ZM147.8 54L147.8 52.8C147.724 52.4064 147.512 52.0522 147.2 51.8L146.6 51.3C146.313 51.1858 146.009 51.1183 145.7 51.1C145.416 51.109 145.136 51.1757 144.878 51.296C144.62 51.4163 144.39 51.5878 144.2 51.8C143.888 52.0522 143.676 52.4064 143.6 52.8L143.6 55.1C143.699 55.5134 143.906 55.893 144.2 56.2001C144.395 56.3989 144.628 56.5549 144.887 56.6582C145.145 56.7616 145.422 56.8098 145.7 56.8C146.009 56.7818 146.313 56.7143 146.6 56.6C146.822 56.5023 147.025 56.367 147.2 56.2001C147.494 55.893 147.701 55.5134 147.8 55.1L147.8 54Z" fill="#142733"/>
<path d="M170.2 56.7L170.8 56.7L170.8 48.6L170.2 48.6L170.2 52.3L166 52.3L166 48.6L165.3 48.6L165.3 56.7L166 56.7L166 52.9L170.2 52.9L170.2 56.7Z" fill="#142733"/>
<path fill-rule="evenodd" clip-rule="evenodd" d="M180 49.2999L180 48.5999L179.3 48.5999L179.3 49.2999L180 49.2999ZM180 56.7L180 51.2L179.4 51.2L179.4 56.7L180 56.7Z" fill="#142733"/>
<path fill-rule="evenodd" clip-rule="evenodd" d="M192 53.6001L188.7 53.6001L188.7 52.6001C188.843 52.3232 189.048 52.0835 189.3 51.9001C189.5 51.7001 189.8 51.7001 190.2 51.7001C190.482 51.6605 190.769 51.7322 191 51.9001C191.279 52.0523 191.492 52.3013 191.6 52.6001L191.6 53.6001L192 53.6001ZM188.3 54.1001L192.1 54.1001L192.1 53.8001C192.13 53.1307 191.956 52.468 191.6 51.9001C191.403 51.6505 191.153 51.4487 190.867 51.31C190.581 51.1712 190.268 51.0991 189.95 51.0991C189.632 51.0991 189.319 51.1712 189.033 51.31C188.747 51.4487 188.496 51.6505 188.3 51.9001C187.949 52.5429 187.776 53.268 187.8 54.0001C187.735 54.7192 187.95 55.4357 188.4 56.0001C188.596 56.2625 188.854 56.4727 189.15 56.6122C189.447 56.7516 189.773 56.8162 190.1 56.8001C190.475 56.7911 190.846 56.7236 191.2 56.6001L192.1 55.9001L191.6 55.6001C191.411 55.8209 191.17 55.9925 190.9 56.1001C190.644 56.1903 190.371 56.2244 190.1 56.2001C189.859 56.2375 189.611 56.2109 189.383 56.1232C189.155 56.0355 188.954 55.8896 188.8 55.7001C188.592 55.1922 188.557 54.6299 188.7 54.1001L188.3 54.1001Z" fill="#142733"/>
<path fill-rule="evenodd" clip-rule="evenodd" d="M208 56.7L208.5 56.7L208.5 53.2C208.544 52.9281 208.522 52.6496 208.435 52.3883C208.348 52.127 208.199 51.8908 208 51.7C207.805 51.5091 207.564 51.3713 207.3 51.2999C207.051 51.1755 206.778 51.1072 206.5 51.0999C206.114 51.106 205.736 51.2092 205.4 51.3999C205.4 51.5856 205.326 51.7637 205.195 51.8949C205.064 52.0262 204.886 52.0999 204.7 52.0999C204.514 52.0999 204.336 52.0262 204.205 51.8949C204.074 51.7637 204 51.5856 204 51.3999C203.67 51.1953 203.288 51.0911 202.9 51.0999C202.588 51.0917 202.279 51.1603 202 51.2999C201.721 51.4394 201.48 51.6455 201.3 51.8999L201.3 51.2L200.7 51.2L200.7 56.7L201.3 56.7L201.3 53.2999C201.282 53.0832 201.308 52.865 201.376 52.6587C201.445 52.4524 201.555 52.2623 201.7 52.0999C201.834 51.9449 202.005 51.8268 202.198 51.7567C202.39 51.6867 202.598 51.6672 202.8 51.7C203.017 51.6816 203.235 51.7075 203.441 51.7763C203.647 51.8451 203.838 51.9552 204 52.0999C204.218 52.4608 204.323 52.8789 204.3 53.2999L204.3 56.7L204.9 56.7L204.9 53.2C204.883 52.9898 204.913 52.7784 204.989 52.5816C205.065 52.3849 205.184 52.2078 205.338 52.0635C205.492 51.9193 205.676 51.8117 205.877 51.7487C206.078 51.6858 206.291 51.6691 206.5 51.7C206.701 51.6833 206.904 51.7104 207.094 51.7795C207.284 51.8485 207.456 51.9578 207.6 52.0999C207.853 52.4493 207.993 52.8683 208 53.2999L208 56.7Z" fill="#142733"/>
<path fill-rule="evenodd" clip-rule="evenodd" d="M220.4 53.5999L217.2 53.5999L217.2 52.5999C217.308 52.3011 217.521 52.0521 217.8 51.8999C218.031 51.7321 218.317 51.6604 218.6 51.6999C218.914 51.6544 219.234 51.7256 219.5 51.8999L220.1 52.5999L220.1 53.5999L220.4 53.5999ZM216.9 54.0999L220.7 54.0999L220.7 53.7999C220.75 53.1133 220.535 52.4336 220.1 51.8999C219.909 51.657 219.666 51.4593 219.389 51.321C219.113 51.1828 218.809 51.1073 218.5 51.0999C218.193 51.1197 217.894 51.2006 217.619 51.338C217.344 51.4754 217.1 51.6665 216.9 51.8999C216.467 52.5115 216.256 53.2521 216.3 53.9999C216.235 54.719 216.45 55.4356 216.9 55.9999C217.117 56.264 217.393 56.4738 217.705 56.6126C218.018 56.7515 218.358 56.8156 218.7 56.7999C219.075 56.7909 219.446 56.7235 219.8 56.5999C220.11 56.4219 220.382 56.184 220.6 55.8999L220.2 55.5999C220.01 55.8207 219.77 55.9923 219.5 56.0999C219.244 56.1901 218.971 56.2242 218.7 56.1999C218.458 56.2373 218.211 56.2108 217.983 56.1231C217.755 56.0354 217.554 55.8895 217.4 55.6999C217.158 55.2033 217.088 54.6407 217.2 54.0999L216.9 54.0999Z" fill="#142733"/>
<path d="M233.1 55.1001C233 54.6001 232.9 54.3001 232.6 54.1001C232.279 53.8652 231.897 53.7265 231.5 53.7001L230.6 53.7001C230.288 53.7044 229.98 53.6359 229.7 53.5001C229.602 53.4124 229.524 53.3043 229.472 53.1833C229.42 53.0624 229.396 52.9316 229.4 52.8C229.471 52.5066 229.608 52.2331 229.8 52.0001C230.087 51.7835 230.441 51.6771 230.8 51.7001C231.375 51.6776 231.94 51.8542 232.4 52.2001L232.8 51.8C232.52 51.6261 232.217 51.4915 231.9 51.4001C231.546 51.2765 231.175 51.209 230.8 51.2001C230.298 51.2423 229.815 51.4146 229.4 51.7001C229.234 51.8293 229.101 51.9968 229.014 52.1884C228.927 52.38 228.888 52.5899 228.9 52.8C228.9 53.7 229.4 54.1001 230.5 54.2001L231.4 54.2001C231.8 54.3001 232.1 54.3001 232.2 54.5001C232.296 54.567 232.374 54.6569 232.427 54.7618C232.479 54.8666 232.504 54.9829 232.5 55.1001C232.49 55.4409 232.346 55.7641 232.1 56.0001C231.706 56.2263 231.253 56.3307 230.8 56.3C230.138 56.2792 229.502 56.0322 229 55.6001L228.6 56.0001L229.6 56.6001C230.023 56.7226 230.46 56.7898 230.9 56.8C231.472 56.8007 232.03 56.6262 232.5 56.3C232.676 56.1512 232.82 55.968 232.923 55.7617C233.026 55.5554 233.087 55.3303 233.1 55.1001Z" fill="#142733"/>
<path fill-rule="evenodd" clip-rule="evenodd" d="M244.3 54.1001L244.3 54.8C244.322 54.9784 244.306 55.1594 244.255 55.3315C244.203 55.5036 244.116 55.6632 244 55.8C243.805 55.9909 243.564 56.1287 243.3 56.2001C243.1 56.2001 242.9 56.3 242.6 56.3C242.21 56.3219 241.824 56.2166 241.5 56.0001C241.399 55.8935 241.321 55.7678 241.269 55.6304C241.218 55.493 241.194 55.3467 241.2 55.2001C241.2 54.4001 241.7 54.1001 242.6 54.1001L244.3 54.1001ZM244.3 56.7001L244.9 56.7001L244.9 52.9001C244.904 52.4191 244.725 51.9545 244.4 51.6001C243.887 51.2861 243.301 51.1135 242.7 51.1001C242.325 51.109 241.954 51.1765 241.6 51.3C241.29 51.4781 241.018 51.716 240.8 52.0001L241.2 52.4001C241.346 52.1526 241.552 51.9461 241.8 51.8C242.093 51.7181 242.397 51.6844 242.7 51.7001C243.123 51.6458 243.552 51.7529 243.9 52.0001C244.04 52.1241 244.149 52.279 244.218 52.4527C244.288 52.6263 244.316 52.8137 244.3 53.0001L244.3 53.6001L242.5 53.6001C242.007 53.6122 241.525 53.7498 241.1 54.0001C240.781 54.318 240.601 54.7496 240.6 55.2001L240.6 55.8L240.9 56.3L241.5 56.7001C241.8 56.7001 242.1 56.8 242.5 56.8C242.842 56.7909 243.18 56.7233 243.5 56.6001C243.753 56.5055 243.99 56.3704 244.2 56.2001L244.3 56.7001Z" fill="#142733"/>
<path d="M118.7 43.7L118.7 15.8L113.3 15.8L106.1 30.9L98.8 15.8L93.4 15.8L93.4 43.7L98.9 43.7L98.9 27.5L104.2 38.1L107.9 38.1L113.3 27.5L113.3 43.7L118.7 43.7Z" fill="#415968"/>
<path fill-rule="evenodd" clip-rule="evenodd" d="M134 31.7L126.2 31.7L126.4 30.4999L126.7 29.4999C126.957 28.8449 127.411 28.2859 128 27.8999C128.656 27.5688 129.368 27.3651 130.1 27.2999C130.863 27.3666 131.608 27.5699 132.3 27.8999C132.856 28.2963 133.275 28.8553 133.5 29.4999L133.9 30.4999L133.9 31.7L134 31.7ZM138.9 35.1L138.9 32.8999C139.004 30.3654 138.187 27.8788 136.6 25.8999C135.1 24.0999 132.9 23.2 130 23.1C128.8 23.0472 127.603 23.2621 126.496 23.7291C125.389 24.1961 124.4 24.9034 123.6 25.7999C122 27.5999 121.2 30.1999 121.1 33.4999C121 36.7999 121.6 38.3999 122.5 39.8999C123.301 41.3083 124.526 42.4281 126 43.1C127.454 43.7153 129.021 44.0218 130.6 43.9999C132.138 44.0317 133.667 43.7599 135.1 43.2C136.275 42.5561 137.353 41.7479 138.3 40.7999L135.2 37.7999C134.662 38.384 134.017 38.8593 133.3 39.2C132.443 39.5485 131.525 39.7186 130.6 39.7C129.991 39.7181 129.384 39.6122 128.816 39.3888C128.249 39.1653 127.733 38.8289 127.3 38.3999C126.506 37.486 126.079 36.3104 126.1 35.1L138.9 35.1Z" fill="#415968"/>
<path fill-rule="evenodd" clip-rule="evenodd" d="M152.4 33.5C152.441 34.924 152.238 36.3444 151.8 37.7C151.517 38.2219 151.098 38.6577 150.587 38.9613C150.077 39.2649 149.494 39.4252 148.9 39.4252C148.306 39.4252 147.723 39.2649 147.213 38.9613C146.702 38.6577 146.283 38.2219 146 37.7C145.562 36.3444 145.359 34.924 145.4 33.5C145.35 32.1083 145.553 30.7191 146 29.4C146.283 28.8781 146.702 28.4423 147.213 28.1387C147.723 27.8351 148.306 27.6748 148.9 27.6748C149.494 27.6748 150.077 27.8351 150.587 28.1387C151.098 28.4423 151.517 28.8781 151.8 29.4C152.247 30.7191 152.45 32.1083 152.4 33.5ZM157.5 43.8L157.5 15.9L152.4 15.9L152.4 25.1C151.784 24.4466 151.033 23.9348 150.2 23.6C149.303 23.2715 148.355 23.1023 147.4 23.1C146.446 23.1119 145.5 23.2809 144.6 23.6C143.765 23.8836 143.01 24.3637 142.4 25C141.412 26.083 140.783 27.4453 140.6 28.9C140.384 30.4231 140.317 31.9638 140.4 33.5C140.314 35.0694 140.381 36.6435 140.6 38.2C140.805 39.6781 141.43 41.0663 142.4 42.2C143.043 42.7705 143.79 43.2118 144.6 43.5C145.5 43.8191 146.446 43.9881 147.4 44C148.388 43.9973 149.368 43.8283 150.3 43.5C151.162 43.1236 151.918 42.5396 152.5 41.8L152.5 43.8L157.5 43.8Z" fill="#415968"/>
<path fill-rule="evenodd" clip-rule="evenodd" d="M165.8 19.9001L165.8 15.7001L160.6 15.7001L160.6 19.9001L165.8 19.9001ZM165.7 43.8L165.7 23.3L160.6 23.3L160.6 43.8L165.7 43.8Z" fill="#415968"/>
<path d="M178 43.8001L178 39.5001L176.2 39.5001C175.686 39.5195 175.185 39.3404 174.8 39.0001C174.495 38.6002 174.353 38.1004 174.4 37.6001L174.4 27.8001L178 27.8001L178 23.9001L174.4 23.9001L174.4 17.9001L169.3 17.9001L169.3 23.9001L167.2 23.9001L167.2 27.8001L169.3 27.8001L169.3 37.9001C169.291 39.3551 169.785 40.7684 170.7 41.9001C171.271 42.5197 171.968 43.0099 172.744 43.3376C173.52 43.6654 174.358 43.823 175.2 43.8001L178 43.8001Z" fill="#415968"/>
<path fill-rule="evenodd" clip-rule="evenodd" d="M191.7 31.7L184 31.7L184 30.4999L184.3 29.4999C184.557 28.8449 185.011 28.2859 185.6 27.8999C186.261 27.5829 186.971 27.3801 187.7 27.2999C188.463 27.3666 189.208 27.5698 189.9 27.8999C190.483 28.2674 190.911 28.8371 191.1 29.4999L191.5 30.4999L191.5 31.7L191.7 31.7ZM196.5 35.0999L196.5 32.8999C196.604 30.3654 195.787 27.8788 194.2 25.8999C192.7 24.0999 190.5 23.1999 187.6 23.0999C186.401 23.0542 185.206 23.2723 184.1 23.7388C182.994 24.2053 182.004 24.9089 181.2 25.7999C179.6 27.5999 178.8 30.1999 178.7 33.4999C178.6 36.7999 179.2 38.3999 180.1 39.8999C180.901 41.3083 182.126 42.4281 183.6 43.0999C186.515 44.2658 189.76 44.3015 192.7 43.2C193.891 42.5815 194.973 41.7705 195.9 40.7999L192.8 37.7999C192.262 38.3839 191.617 38.8592 190.9 39.2C190.043 39.5485 189.125 39.7186 188.2 39.7C187.591 39.7181 186.984 39.6122 186.416 39.3888C185.849 39.1653 185.333 38.8289 184.9 38.3999C184.142 37.4715 183.751 36.2975 183.8 35.0999L196.5 35.0999Z" fill="#415968"/>
<path fill-rule="evenodd" clip-rule="evenodd" d="M213.8 25.0001C213.222 24.3487 212.504 23.836 211.7 23.5001C210.831 23.207 209.917 23.0715 209 23.1001C207.962 23.1173 206.939 23.356 206 23.8C205.195 24.1329 204.476 24.6461 203.9 25.3L203.9 23.3L198.9 23.3L198.9 43.8L204 43.8L204 31.5001C203.973 30.4266 204.368 29.3854 205.1 28.6001C205.389 28.3127 205.733 28.0853 206.11 27.9308C206.488 27.7764 206.892 27.698 207.3 27.7001C207.817 27.6812 208.33 27.784 208.8 28.0001C209.246 28.2339 209.651 28.5377 210 28.9001L213.8 25.0001Z" fill="#415968"/>
<path fill-rule="evenodd" clip-rule="evenodd" d="M229.2 25.0001C228.566 24.3676 227.82 23.8589 227 23.5001C226.131 23.207 225.217 23.0715 224.3 23.1001C223.262 23.1173 222.239 23.356 221.3 23.8C220.494 24.1329 219.776 24.6461 219.2 25.3L219.2 23.3L214.2 23.3L214.2 43.8L219.3 43.8L219.3 31.5001C219.273 30.4266 219.668 29.3854 220.4 28.6001C220.996 28.0372 221.78 27.7164 222.6 27.7001C223.117 27.6812 223.63 27.784 224.1 28.0001C224.562 28.207 224.972 28.5145 225.3 28.9001L229.2 25.0001Z" fill="#415968"/>
<path fill-rule="evenodd" clip-rule="evenodd" d="M239.9 36.2001L239.7 37.8C239.624 38.1937 239.412 38.5479 239.1 38.8C238.718 39.1937 238.233 39.4711 237.7 39.6001C237.117 39.7757 236.507 39.8435 235.9 39.8C235.119 39.8593 234.342 39.6474 233.7 39.2001C233.468 38.984 233.285 38.7201 233.164 38.4267C233.043 38.1333 232.987 37.8171 233 37.5001C232.963 37.1806 233.008 36.8571 233.131 36.5597C233.253 36.2624 233.449 36.001 233.7 35.8C234.329 35.3173 235.107 35.0697 235.9 35.1001L239.9 35.1001L239.9 36.2001ZM242.6 13.4L237.3 13.4L234.8 20.1001L238.2 20.1001L242.6 13.4ZM245 43.8L245 30.3C245.057 29.2931 244.889 28.2863 244.508 27.3523C244.128 26.4183 243.544 25.5807 242.8 24.9C241.3 23.7 239.2 23.1001 236.3 23.1001C234.876 23.0593 233.456 23.2622 232.1 23.7001C230.876 24.1734 229.78 24.9268 228.9 25.9L232.2 29.1001C232.633 28.556 233.179 28.1124 233.8 27.8C234.524 27.4871 235.312 27.35 236.1 27.4C237.129 27.3342 238.15 27.6159 239 28.2001C239.318 28.5088 239.564 28.8841 239.719 29.2991C239.875 29.7141 239.937 30.1584 239.9 30.6001L239.9 31.7001L235.1 31.7001C233.181 31.5659 231.283 32.1745 229.8 33.4C229.244 33.9467 228.807 34.6015 228.515 35.3239C228.222 36.0463 228.081 36.821 228.1 37.6001C228.078 38.4509 228.214 39.2985 228.5 40.1001C228.775 40.8867 229.218 41.6035 229.8 42.2001C230.419 42.8032 231.173 43.249 232 43.5001C232.962 43.8457 233.978 44.0151 235 44.0001C235.988 44.0053 236.97 43.8361 237.9 43.5001C238.688 43.1366 239.4 42.6277 240 42.0001L240 43.8L245 43.8Z" fill="#415968"/>
<path fill-rule="evenodd" clip-rule="evenodd" d="M264.9 43.8L264.9 30.7001C264.921 29.6527 264.786 28.608 264.5 27.6001C264.166 26.5728 263.582 25.6448 262.8 24.9001C262.259 24.2984 261.569 23.85 260.8 23.6001C259.903 23.2716 258.955 23.1024 258 23.1001C257.078 23.1119 256.165 23.281 255.3 23.6001C254.407 23.9796 253.594 24.5222 252.9 25.2001L252.9 23.3L247.9 23.3L247.9 43.8L253 43.8L253 31.4001C252.975 30.8671 253.06 30.3348 253.249 29.836C253.439 29.3372 253.728 28.8825 254.1 28.5001C254.742 27.9586 255.561 27.6736 256.4 27.7001C256.818 27.6713 257.237 27.7273 257.632 27.8648C258.027 28.0023 258.39 28.2184 258.7 28.5001C259.094 28.8664 259.398 29.3186 259.589 29.8216C259.78 30.3245 259.852 30.8646 259.8 31.4001L259.8 43.8L264.9 43.8Z" fill="#415968"/>
<path fill-rule="evenodd" clip-rule="evenodd" d="M279.6 31.7L271.8 31.7L272 30.4999C272.005 30.1451 272.109 29.7987 272.3 29.4999C272.557 28.8449 273.012 28.2859 273.6 27.8999C274.256 27.5688 274.968 27.3651 275.7 27.2999C276.463 27.3666 277.208 27.5699 277.9 27.8999C278.429 28.3231 278.842 28.8736 279.1 29.4999L279.5 30.4999L279.5 31.7L279.6 31.7ZM284.5 35.1L284.5 32.8999C284.604 30.3654 283.787 27.8788 282.2 25.8999C280.7 24.0999 278.5 23.2 275.6 23.1C274.4 23.0472 273.203 23.2621 272.096 23.7291C270.989 24.1961 270 24.9034 269.2 25.7999C267.6 27.5999 266.8 30.1999 266.7 33.4999C266.584 35.7202 267.068 37.9307 268.1 39.8999C268.872 41.3312 270.105 42.4591 271.6 43.1C273.054 43.7153 274.621 44.0218 276.2 43.9999C277.706 44.0432 279.205 43.7707 280.6 43.2C281.822 42.5831 282.937 41.7726 283.9 40.7999L280.8 37.7999C280.262 38.384 279.617 38.8593 278.9 39.2C278.043 39.5485 277.125 39.7186 276.2 39.7C275.591 39.7181 274.984 39.6122 274.416 39.3888C273.849 39.1653 273.333 38.8289 272.9 38.3999C272.489 37.9584 272.171 37.4387 271.965 36.8718C271.759 36.3049 271.669 35.7024 271.7 35.1L284.5 35.1Z" fill="#415968"/>
<path fill-rule="evenodd" clip-rule="evenodd" d="M298.1 33.5001C298.144 34.4713 298.077 35.4442 297.9 36.4001C297.851 37.183 297.533 37.9249 297 38.5001C296.673 38.7907 296.302 39.027 295.9 39.2002C295.477 39.3227 295.04 39.3899 294.6 39.4001C294.127 39.3898 293.657 39.3227 293.2 39.2002C292.829 39.0254 292.491 38.7887 292.2 38.5001C291.671 37.9114 291.324 37.182 291.2 36.4001L291 33.5001L291.2 30.7002C291.324 29.9183 291.671 29.1889 292.2 28.6001C292.491 28.3116 292.829 28.0748 293.2 27.9001C293.657 27.7776 294.127 27.7104 294.6 27.7002C295.04 27.7104 295.477 27.7776 295.9 27.9001C296.302 28.0733 296.673 28.3096 297 28.6001C297.533 29.1754 297.851 29.9173 297.9 30.7002C298.073 31.6228 298.14 32.5622 298.1 33.5001ZM303.2 33.5001C303.239 31.9567 303.104 30.4138 302.8 28.9001C302.404 27.6797 301.757 26.5556 300.9 25.6001C300.212 24.8449 299.355 24.2624 298.4 23.9001C297.208 23.357 295.91 23.0839 294.6 23.1001C293.257 23.0822 291.927 23.3551 290.7 23.9001C289.773 24.2626 288.949 24.8462 288.3 25.6001C287.374 26.5034 286.716 27.6457 286.4 28.9001C286.058 30.4093 285.89 31.9527 285.9 33.5001C285.885 35.0808 286.053 36.658 286.4 38.2002C286.69 39.4652 287.351 40.6145 288.3 41.5001C288.949 42.2541 289.773 42.8377 290.7 43.2002C291.927 43.7452 293.257 44.0181 294.6 44.0001C295.91 44.0164 297.208 43.7433 298.4 43.2002C299.355 42.8379 300.212 42.2554 300.9 41.5001C301.778 40.5601 302.428 39.4311 302.8 38.2002C303.109 36.6534 303.243 35.0768 303.2 33.5001Z" fill="#415968"/>
<path d="M100.5 12.8L100.5 3.00005L98.6 3.00005L98.6 7.00005L95.3 7.00005L95.3 3.00005L93.4 3.00005L93.4 12.8L95.3 12.8L95.3 8.70005L98.6 8.70005L98.6 12.8L100.5 12.8Z" fill="#415968"/>
<path fill-rule="evenodd" clip-rule="evenodd" d="M105.7 4.40005L105.7 3.00006L103.9 3.00006L103.9 4.40005L105.7 4.40005ZM105.7 12.8L105.7 5.70007L103.9 5.70007L103.9 12.8L105.7 12.8Z" fill="#415968"/>
<path fill-rule="evenodd" clip-rule="evenodd" d="M113 8.50011L110.3 8.50011L110.3 7.8001C110.375 7.5941 110.515 7.41842 110.7 7.3001C110.807 7.19926 110.932 7.12079 111.07 7.06927C111.207 7.01774 111.353 6.99423 111.5 7.00011C111.632 6.99591 111.762 7.02058 111.883 7.07241C112.004 7.12424 112.112 7.20196 112.2 7.3001C112.413 7.41276 112.587 7.587 112.7 7.8001L112.7 8.50011L113 8.50011ZM114.5 9.8001L114.5 9.00011C114.515 8.10163 114.233 7.22326 113.7 6.50011C113.407 6.19004 113.048 5.9486 112.651 5.79302C112.253 5.63744 111.826 5.57158 111.4 5.60012C110.99 5.57957 110.58 5.64954 110.2 5.80507C109.82 5.96061 109.478 6.1979 109.2 6.50011C108.879 6.86847 108.634 7.29671 108.48 7.76012C108.326 8.22353 108.264 8.71295 108.3 9.20012C108.263 9.96533 108.436 10.7261 108.8 11.4001C108.917 11.6541 109.083 11.8822 109.289 12.0711C109.495 12.26 109.737 12.4059 110 12.5001C110.483 12.7855 111.039 12.9244 111.6 12.9001C112.111 12.868 112.616 12.7671 113.1 12.6001C113.562 12.3932 113.972 12.0857 114.3 11.7001L113.2 10.7001C113.011 10.9209 112.77 11.0925 112.5 11.2001C112.22 11.336 111.911 11.4044 111.6 11.4001C111.159 11.3581 110.741 11.1838 110.4 10.9001C110.165 10.5788 110.026 10.1973 110 9.8001L114.5 9.8001Z" fill="#415968"/>
<path fill-rule="evenodd" clip-rule="evenodd" d="M122.9 6.20007L122.2 5.70007C121.907 5.61813 121.603 5.58435 121.3 5.60007C120.925 5.60904 120.554 5.6765 120.2 5.80005C119.917 5.88245 119.67 6.05877 119.5 6.30005L119.5 5.70007L117.7 5.70007L117.7 12.8L119.5 12.8L119.5 8.50006C119.475 8.31307 119.499 8.12287 119.569 7.94775C119.639 7.77263 119.753 7.61847 119.9 7.50006C120.007 7.39923 120.132 7.32075 120.27 7.26923C120.407 7.2177 120.553 7.19419 120.7 7.20007C120.873 7.18451 121.046 7.21921 121.2 7.30005L121.6 7.60007L122.9 6.20007Z" fill="#415968"/>
<path fill-rule="evenodd" clip-rule="evenodd" d="M130.4 6.20007L129.7 5.70007C129.407 5.61813 129.103 5.58435 128.8 5.60007C128.425 5.60904 128.054 5.6765 127.7 5.80005C127.417 5.88245 127.17 6.05877 127 6.30005L127 5.70007L125.2 5.70007L125.2 12.8L127 12.8L127 8.50006C126.991 8.31447 127.023 8.1292 127.092 7.9567C127.161 7.7842 127.266 7.62848 127.4 7.50006C127.507 7.39923 127.632 7.32075 127.77 7.26923C127.907 7.2177 128.053 7.19419 128.2 7.20007C128.373 7.16936 128.552 7.20504 128.7 7.30005L129.1 7.60007L130.4 6.20007Z" fill="#415968"/>
<path fill-rule="evenodd" clip-rule="evenodd" d="M136.4 9.19995L136.4 10.2C136.3 10.5 136.2 10.7999 136 10.8999L135.7 11.2C135.5 11.2 135.4 11.2999 135.2 11.2999C135 11.2999 134.9 11.2 134.7 11.2L134.4 10.8999C134.2 10.7999 134.1 10.5 134 10.2L134 8.19995L134.4 7.49994L134.7 7.19995L135.7 7.19995L136 7.49994L136.4 8.19995L136.4 9.19995ZM138.1 9.19995L138.1 7.59994C137.945 7.15933 137.707 6.75215 137.4 6.39993C137.133 6.1545 136.829 5.95208 136.5 5.79993C135.654 5.53163 134.746 5.53163 133.9 5.79993C133.571 5.95208 133.267 6.1545 133 6.39993C132.722 6.75611 132.518 7.16406 132.4 7.59995L132.2 9.19995L132.4 10.7999C132.496 11.244 132.702 11.6568 133 11.9999C133.267 12.2454 133.571 12.4478 133.9 12.5999C134.306 12.795 134.75 12.8962 135.2 12.8962C135.65 12.8962 136.094 12.795 136.5 12.5999L137.4 11.9999C137.727 11.6626 137.967 11.2507 138.1 10.7999L138.1 9.19995Z" fill="#415968"/>
<path d="M146.5 10.5C146.516 10.2361 146.47 9.97211 146.366 9.72908C146.261 9.48605 146.102 9.27067 145.9 9.10005C145.71 8.88783 145.48 8.71635 145.222 8.59602C144.964 8.47569 144.684 8.40901 144.4 8.40004L143.2 8.40004C143.092 8.40923 142.983 8.39625 142.879 8.36186C142.776 8.32747 142.681 8.27242 142.6 8.20006L142.6 7.80003L142.8 7.30003C143.049 7.1756 143.322 7.10735 143.6 7.10005C143.9 7.10005 144.2 7.20006 144.5 7.20006C144.793 7.27129 145.067 7.40803 145.3 7.60005L146.4 6.50005C146.023 6.23009 145.621 5.99574 145.2 5.80003C144.671 5.71387 144.135 5.6804 143.6 5.70006C143.161 5.71806 142.725 5.78513 142.3 5.90004C141.907 6.08265 141.564 6.35705 141.3 6.70006C141.155 6.86239 141.045 7.05251 140.976 7.25883C140.908 7.46516 140.882 7.68333 140.9 7.90004C140.876 8.17953 140.918 8.46071 141.022 8.72115C141.126 8.98158 141.29 9.21405 141.5 9.40004C141.916 9.75576 142.454 9.93516 143 9.90004L144.1 9.90004C144.4 10 144.6 10.0001 144.7 10.2001L144.7 10.6001C144.715 10.6658 144.716 10.7338 144.703 10.8C144.691 10.8662 144.665 10.9292 144.628 10.9852C144.59 11.0413 144.542 11.0892 144.486 11.1261C144.43 11.163 144.366 11.1882 144.3 11.2001C144.044 11.2902 143.771 11.3243 143.5 11.3C143.197 11.3158 142.893 11.282 142.6 11.2001C142.224 11.1375 141.876 10.9632 141.6 10.7001L140.4 11.8C140.827 12.207 141.34 12.5144 141.9 12.7001C142.425 12.8218 142.961 12.8888 143.5 12.9C144.244 12.9159 144.976 12.7068 145.6 12.3C145.896 12.1063 146.135 11.8377 146.293 11.5215C146.451 11.2053 146.522 10.8528 146.5 10.5Z" fill="#415968"/>
<path fill-rule="evenodd" clip-rule="evenodd" d="M157.6 9.20016L157.4 10.7002C157.286 10.8662 157.138 11.0057 156.965 11.1092C156.793 11.2128 156.6 11.2779 156.4 11.3001C155.9 11.2001 155.5 11.0002 155.4 10.7002C155.222 10.2215 155.153 9.70884 155.2 9.20016C155.146 8.72407 155.215 8.24201 155.4 7.80014C155.468 7.59771 155.606 7.42621 155.79 7.31628C155.973 7.20636 156.189 7.1652 156.4 7.20016C156.609 7.18301 156.817 7.23166 156.997 7.33929C157.176 7.44693 157.317 7.6081 157.4 7.80014L157.6 9.20016ZM159.4 12.8001L159.4 3.00015L157.6 3.00015L157.6 6.30014C157.404 6.0198 157.124 5.80955 156.8 5.70016C156.507 5.61822 156.203 5.58444 155.9 5.60016C155.563 5.57888 155.226 5.61266 154.9 5.70016C154.62 5.84403 154.352 6.01129 154.1 6.20016C153.783 6.60744 153.576 7.08965 153.5 7.60016L153.5 10.8001C153.576 11.3107 153.783 11.7929 154.1 12.2002C154.327 12.4227 154.6 12.5933 154.9 12.7002C155.2 12.8002 155.5 12.8001 155.9 12.9001C156.21 12.8923 156.516 12.8244 156.8 12.7002C157.124 12.5908 157.404 12.3805 157.6 12.1002L157.6 12.8001L159.4 12.8001Z" fill="#415968"/>
<path fill-rule="evenodd" clip-rule="evenodd" d="M166.7 8.50011L164 8.50011L164 7.8001C164.075 7.5941 164.215 7.41842 164.4 7.3001C164.507 7.19926 164.632 7.12079 164.77 7.06927C164.907 7.01774 165.053 6.99423 165.2 7.00011C165.331 6.99591 165.462 7.02058 165.583 7.07241C165.704 7.12424 165.812 7.20196 165.9 7.3001C166.113 7.41276 166.287 7.587 166.4 7.8001L166.4 8.50011L166.7 8.50011ZM168.2 9.8001L168.2 9.00011C168.214 8.10163 167.933 7.22326 167.4 6.50011C166.773 5.92387 165.952 5.60412 165.1 5.60412C164.248 5.60412 163.427 5.92387 162.8 6.50011C162.223 7.27744 161.939 8.2339 162 9.20012C161.963 9.96533 162.136 10.7261 162.5 11.4001C162.617 11.6541 162.783 11.8822 162.989 12.0711C163.195 12.26 163.437 12.4059 163.7 12.5001C164.183 12.7855 164.739 12.9244 165.3 12.9001C165.811 12.868 166.316 12.7671 166.8 12.6001C167.262 12.3932 167.672 12.0857 168 11.7001L166.9 10.7001C166.71 10.9209 166.47 11.0925 166.2 11.2001C165.92 11.336 165.611 11.4044 165.3 11.4001C164.859 11.3581 164.44 11.1838 164.1 10.9001C163.865 10.5788 163.726 10.1973 163.7 9.8001L168.2 9.8001Z" fill="#415968"/>
<path d="M174.4 12.8L174.4 11.3L173.8 11.3C173.707 11.308 173.613 11.294 173.526 11.2593C173.439 11.2246 173.362 11.1701 173.3 11.1001L173.1 10.6001L173.1 3.00006L171.4 3.00006L171.4 10.7001C171.359 10.9485 171.373 11.2029 171.442 11.445C171.512 11.6872 171.634 11.9109 171.8 12.1001C172.237 12.5109 172.802 12.7582 173.4 12.8L174.4 12.8Z" fill="#415968"/>
</g>
<defs>
<clipPath class="clip0_608_174">
<rect width="59.3" height="303.2" fill="white" transform="translate(0 59.3) rotate(-90)"/>
</clipPath>
</defs>
</svg>
