<svg width="115" height="114" viewBox="0 0 115 114" fill="none" xmlns="http://www.w3.org/2000/svg">
<path d="M8.26239 17.9622C8.44341 18.2345 8.69236 18.455 8.98457 18.6017L12.9208 20.5688C13.0014 20.8639 13.1547 21.1342 13.3665 21.3549L46.3962 54.3847L41.5949 59.1804C37.4481 63.3307 32.6579 66.7838 27.4092 69.4054L25.4402 70.3965C24.6506 70.3023 23.8565 70.2527 23.0612 70.2479C17.6021 70.2421 12.3671 72.4192 8.52191 76.2942L6.28772 78.5284C0.695376 84.125 -0.689947 92.6711 2.84802 99.7478C3.31277 100.677 4.44257 101.053 5.37137 100.588C5.55074 100.498 5.71481 100.38 5.85704 100.239L15.1662 90.9294C17.3668 88.7234 20.9391 88.7187 23.1451 90.9193C24.206 91.9774 24.8024 93.4142 24.8027 94.9126C24.8057 96.4094 24.2105 97.8455 23.1496 98.9015L13.8404 108.211C13.1067 108.946 13.1079 110.137 13.8432 110.87C13.985 111.012 14.1486 111.13 14.3275 111.22C21.3987 114.772 29.9507 113.39 35.543 107.791L37.7772 105.557C41.6685 101.686 43.8491 96.4183 43.8329 90.9294C43.8289 90.1642 43.7793 89.4 43.6843 88.6407L44.6604 86.6735C47.2862 81.4246 50.7436 76.6349 54.8986 72.4897L59.6999 67.6884L62.5773 70.5639L57.2588 75.888C56.5259 76.6222 56.5259 77.8112 57.2588 78.5454L59.8353 81.1218C60.1814 81.4681 60.6489 81.6658 61.1386 81.6729L65.1312 81.7274L65.7857 84.0613C65.8741 84.3716 66.0398 84.6542 66.2671 84.8831L91.5204 110.146C96.6654 115.287 105.004 115.284 110.145 110.139C115.287 104.994 115.284 96.6557 110.139 91.5143L84.9946 66.3701C84.7729 66.1489 84.4995 65.9866 84.1991 65.898L81.6997 65.1552L81.5587 61.0177C81.542 60.5412 81.3452 60.0889 81.0076 59.7521L78.5252 57.2696C77.7908 56.5355 76.6003 56.5355 75.8659 57.2696L70.5588 62.5806L67.687 59.7088L73.4136 53.9841C77.5522 49.8258 82.3426 46.372 87.5955 43.7591L89.5476 42.7661C90.3088 42.862 91.075 42.9123 91.842 42.9165C97.3314 42.9332 102.599 40.7533 106.472 36.8627L108.706 34.6285C114.309 29.0397 115.694 20.4865 112.142 13.4149C111.676 12.4868 110.545 12.1123 109.617 12.5784C109.438 12.6685 109.274 12.7862 109.133 12.9278L99.8235 22.2351C97.6384 24.4566 94.0664 24.486 91.8448 22.3009C89.6233 20.1158 89.5939 16.5438 91.779 14.3223C91.8004 14.3004 91.822 14.2788 91.8439 14.2574L101.153 4.94819C101.886 4.21239 101.884 3.02147 101.148 2.28849C101.006 2.14697 100.842 2.02895 100.662 1.93915C93.5887 -1.59529 85.0473 -0.210894 79.4523 5.37697L77.2181 7.61118C72.7615 12.0389 70.5881 18.2697 71.3242 24.5088L70.318 26.506C67.7021 31.7535 64.252 36.5416 60.1024 40.6842L54.3796 46.407L22.3127 14.3476C22.3353 14.0282 22.2751 13.708 22.1378 13.4186L19.4917 8.09827C19.345 7.80606 19.1245 7.55711 18.8523 7.3761L10.8727 2.05575C10.1271 1.55926 9.13478 1.65775 8.50124 2.29082L3.18089 7.61117C2.54665 8.24378 2.44673 9.23629 2.94205 9.98266L8.26239 17.9622ZM35.118 102.898L32.8838 105.132C29.1317 108.891 23.6338 110.315 18.5288 108.85L25.8088 101.568C29.497 97.9122 29.5233 91.9584 25.8671 88.2702C22.2111 84.582 16.2572 84.5557 12.5691 88.2119C12.5496 88.2312 12.53 88.2507 12.5108 88.2702L5.23267 95.5483C3.77705 90.4444 5.19812 84.9522 8.94695 81.1952L11.1812 78.961C14.9326 75.1816 20.2569 73.41 25.5248 74.1879L25.5662 74.1879C26.4405 74.3127 27.3039 74.505 28.1483 74.7634L28.263 74.7991C29.0844 75.0575 29.8846 75.3781 30.6571 75.7582L30.77 75.8147C31.5568 76.2087 32.3114 76.664 33.0267 77.1762C33.7668 77.7111 34.4628 78.3042 35.1086 78.9497C37.7098 81.5415 39.3873 84.916 39.8836 88.5542C40.0023 89.3365 40.062 90.1268 40.0622 90.9181C40.0813 95.4117 38.3008 99.7259 35.118 102.898ZM52.2413 69.8286C48.3091 73.7478 44.9606 78.2115 42.2983 83.0834C42.2156 82.8802 42.1102 82.6884 42.02 82.4891C41.8752 82.16 41.7285 81.8308 41.5649 81.5111C41.4276 81.2441 41.279 80.9827 41.1304 80.7213C40.9819 80.4599 40.8145 80.1721 40.6433 79.9032C40.4722 79.6343 40.3086 79.3822 40.1299 79.1265C39.9513 78.8707 39.7538 78.6206 39.5657 78.3742C39.3777 78.1279 39.1896 77.8777 38.9884 77.637C38.7871 77.3963 38.5238 77.1179 38.285 76.8622C38.112 76.6741 37.9559 76.4861 37.7753 76.298C37.6324 76.1569 37.4782 76.0347 37.3334 75.8993C37.0212 75.6059 36.709 75.3144 36.3818 75.0417C36.2125 74.9007 36.0358 74.7709 35.8627 74.6336C35.5205 74.3666 35.1744 74.1089 34.8171 73.8644C34.6497 73.7497 34.4786 73.6369 34.3074 73.5278C33.9163 73.277 33.5164 73.0395 33.1076 72.815C32.9628 72.736 32.8199 72.6533 32.6732 72.5762C32.1353 72.2979 31.588 72.0383 31.0257 71.8089L30.9731 71.7844C35.85 69.1229 40.3206 65.7765 44.2485 61.8471L49.0555 57.0439L55.7543 63.7409L57.0407 65.0292L52.2413 69.8286ZM77.1899 61.2491L77.8181 61.8772L77.9798 66.6352C78.0071 67.4439 78.5487 68.1447 79.3244 68.3748L82.6664 69.3678L107.47 94.1604C111.146 97.8335 111.148 103.791 107.475 107.467C103.802 111.143 97.8441 111.145 94.1684 107.472L69.2762 82.5718L68.3753 79.3578C68.1497 78.5559 67.4235 77.9981 66.5906 77.9868L61.9567 77.9229L61.2477 77.2139L77.1899 61.2491ZM79.8755 10.2667L82.1172 8.0268C85.8729 4.27679 91.3655 2.85597 96.4684 4.31441L89.1903 11.5925C85.563 15.3091 85.6354 21.2623 89.352 24.8896C93.0024 28.452 98.8272 28.4551 102.481 24.8962L109.763 17.6181C111.23 22.7229 109.807 28.2216 106.047 31.9731L103.812 34.2073C97.1939 40.7966 86.4939 40.7966 79.8755 34.2073C77.2912 31.6092 75.6172 28.2445 75.1043 24.616L75.1043 24.6047C74.3238 19.3387 76.0954 14.0152 79.8755 10.2667ZM62.7616 43.3397C66.6922 39.4157 70.0388 34.9473 72.6989 30.0717C72.7253 30.1394 72.761 30.2015 72.7892 30.2598C72.9961 30.7551 73.2218 31.2403 73.4662 31.7154C73.5697 31.9148 73.6806 32.1085 73.7916 32.3059C73.9797 32.6501 74.1828 32.9905 74.3953 33.3234C74.5363 33.5453 74.6793 33.7615 74.8278 33.9778C75.0366 34.2787 75.2566 34.5721 75.4823 34.8617C75.6459 35.0761 75.8076 35.2924 75.9825 35.5011C76.2496 35.819 76.5354 36.1255 76.8232 36.4302C76.9586 36.5712 77.0771 36.7236 77.2162 36.8627C77.3554 37.0019 77.5265 37.1392 77.6789 37.2821C77.9704 37.5567 78.2619 37.8313 78.5665 38.087C78.7903 38.2751 79.0235 38.4481 79.2549 38.6268C79.5219 38.8318 79.7908 39.0349 80.0654 39.2267C80.308 39.3941 80.5525 39.5558 80.8026 39.7138C81.0885 39.9019 81.38 40.0655 81.6734 40.231C81.9197 40.3701 82.1642 40.5112 82.4162 40.6391C82.7641 40.8177 83.1215 40.9776 83.4807 41.1356C83.6593 41.2146 83.8305 41.3086 84.011 41.3838C79.1326 44.0362 74.6647 47.3824 70.7468 51.3174L65.024 57.0402L57.0388 49.055L62.7616 43.3397ZM20.0202 17.3642L67.892 65.236L65.229 67.899L17.3572 20.0272L20.0202 17.3642ZM10.0659 6.04083L16.3454 10.2271L18.1753 13.8869L14.7732 17.289L11.1135 15.4591L6.92714 9.17963L10.0659 6.04083Z" fill="#2878CD"/>
</svg>
