<svg width="103" height="40" viewBox="0 0 103 40" fill="none" xmlns="http://www.w3.org/2000/svg">
<path d="M101.437 7.51094C100.5 5.89149 98.9591 4.70918 97.1524 4.22276C95.3457 3.73634 93.4199 3.98541 91.7964 4.91547L74.5816 14.8559C73.6415 13.4474 72.2245 12.4254 70.5912 11.978L44.2481 4.93312C42.2208 4.38605 40.0871 4.36781 38.0508 4.88016L28.7812 7.19313V5.92188C28.7812 5.4536 28.5952 5.00451 28.2641 4.67339C27.933 4.34227 27.4839 4.15625 27.0156 4.15625H21.7187V2.39062C21.7187 1.92235 21.5327 1.47326 21.2016 1.14214C20.8705 0.811019 20.4214 0.625 19.9531 0.625H2.29687C1.8286 0.625 1.37951 0.811019 1.04839 1.14214C0.717271 1.47326 0.53125 1.92235 0.53125 2.39062V37.7031C0.53125 38.1714 0.717271 38.6205 1.04839 38.9516C1.37951 39.2827 1.8286 39.4688 2.29687 39.4688H19.9531C20.4214 39.4688 20.8705 39.2827 21.2016 38.9516C21.5327 38.6205 21.7187 38.1714 21.7187 37.7031V35.9375H27.0156C27.4839 35.9375 27.933 35.7515 28.2641 35.4204C28.5952 35.0892 28.7812 34.6401 28.7812 34.1719V33.5009L31.0589 34.6309C32.776 35.4857 34.6672 35.9328 36.5853 35.9375H63.0167C65.1874 35.9422 67.3202 35.3694 69.1964 34.2778L98.8589 17.1513C100.475 16.2105 101.653 14.6688 102.136 12.8626C102.619 11.0564 102.367 9.13253 101.437 7.51094ZM18.1875 35.9375H4.0625V4.15625H18.1875V35.9375ZM25.25 32.4062H21.7187V7.6875H25.25V32.4062ZM97.0933 14.0967L67.4308 31.2233C66.0893 31.9996 64.5666 32.4077 63.0167 32.4062H36.5853C35.2118 32.409 33.8569 32.0885 32.6303 31.4705L28.7812 29.5459V10.8303L38.8983 8.30547C40.3541 7.93731 41.8802 7.94947 43.33 8.34078L69.6731 15.4033C70.3509 15.5793 70.9606 15.9536 71.4242 16.4784C71.8878 17.0032 72.1841 17.6544 72.2752 18.3487C72.3662 19.043 72.2478 19.7486 71.9352 20.3752C71.6227 21.0017 71.1301 21.5207 70.5206 21.8655C70.1227 22.1002 69.6815 22.2524 69.2235 22.3131C68.7654 22.3738 68.2999 22.3416 67.8545 22.2186L46.7906 16.5686C46.3364 16.4468 45.8524 16.5105 45.4451 16.7456C45.0379 16.9807 44.7407 17.368 44.6189 17.8222C44.4971 18.2764 44.5608 18.7604 44.7959 19.1677C45.031 19.5749 45.4183 19.8722 45.8725 19.9939L66.9364 25.6262C67.5353 25.7875 68.1525 25.8706 68.7727 25.8734C70.008 25.8752 71.2212 25.546 72.2862 24.92C73.0932 24.4591 73.8007 23.8425 74.3674 23.1059C74.9342 22.3694 75.3491 21.5277 75.588 20.6295C75.7838 19.8512 75.8494 19.0457 75.7822 18.2459L93.562 7.98765C94.3733 7.53733 95.3279 7.42004 96.224 7.66055C97.1202 7.90107 97.8877 8.48055 98.3645 9.27657C98.8334 10.0847 98.9629 11.0458 98.7246 11.9493C98.4864 12.8527 97.8997 13.6249 97.0933 14.0967Z" fill="#2878CD"/>
</svg>
