<svg width="111" height="98" viewBox="0 0 111 98" fill="none" xmlns="http://www.w3.org/2000/svg">
<path d="M109.79 22.4995L70.6028 1.12445C70.3413 0.98145 70.048 0.90642 69.75 0.90625H41.25C40.952 0.90642 40.6587 0.98145 40.3972 1.12445L1.20973 22.4995C0.928728 22.6524 0.694181 22.8784 0.530782 23.1534C0.367384 23.4285 0.281181 23.7426 0.28125 24.0625V88.1875C0.28125 88.6599 0.468917 89.113 0.802966 89.447C1.13702 89.7811 1.59008 89.9688 2.0625 89.9688H64.4062V95.3125C64.4062 95.7849 64.5939 96.238 64.928 96.572C65.262 96.9061 65.7151 97.0938 66.1875 97.0938H108.938C109.41 97.0938 109.863 96.9061 110.197 96.572C110.531 96.238 110.719 95.7849 110.719 95.3125V24.0625C110.719 23.7426 110.633 23.4285 110.469 23.1534C110.306 22.8784 110.071 22.6524 109.79 22.4995ZM69.2958 4.46875L101.953 22.2812H80.8917L48.2347 4.46875H69.2958ZM59.0625 86.4062H23.4375V82.8438H59.0625V86.4062ZM59.0625 79.2812H23.4375V75.7188H59.0625V79.2812ZM59.0625 72.1562H23.4375V68.5938H59.0625V72.1562ZM59.0625 65.0312H23.4375V61.4688H59.0625V65.0312ZM59.0625 57.9062H23.4375V54.3438H59.0625V57.9062ZM19.875 50.7812V47.2188H62.625V50.7812H19.875ZM64.4062 73.9375V86.4062H62.625V54.3438H64.4062C64.8787 54.3438 65.3317 54.1561 65.6658 53.822C65.9998 53.488 66.1875 53.0349 66.1875 52.5625V45.4375C66.1875 44.9651 65.9998 44.512 65.6658 44.178C65.3317 43.8439 64.8787 43.6562 64.4062 43.6562H18.0938C17.6213 43.6562 17.1683 43.8439 16.8342 44.178C16.5002 44.512 16.3125 44.9651 16.3125 45.4375V52.5625C16.3125 53.0349 16.5002 53.488 16.8342 53.822C17.1683 54.1561 17.6213 54.3438 18.0938 54.3438H19.875V86.4062H3.84375V25.1201L41.25 4.7159L78.6562 25.1201V50.7812H76.875C76.4026 50.7812 75.9495 50.9689 75.6155 51.303C75.2814 51.637 75.0938 52.0901 75.0938 52.5625V72.1562H66.1875C65.7151 72.1562 65.262 72.3439 64.928 72.678C64.5939 73.012 64.4062 73.4651 64.4062 73.9375ZM78.6562 75.7188V82.8438H75.0938V75.7188H78.6562ZM85.7812 93.5312H67.9688V75.7188H71.5312V84.625C71.5312 85.0974 71.7189 85.5505 72.053 85.8845C72.387 86.2186 72.8401 86.4062 73.3125 86.4062H80.4375C80.9099 86.4062 81.363 86.2186 81.697 85.8845C82.0311 85.5505 82.2188 85.0974 82.2188 84.625V75.7188H85.7812V93.5312ZM78.6562 72.1562V54.3438H82.2188V63.25C82.2188 63.7224 82.4064 64.1755 82.7405 64.5095C83.0745 64.8436 83.5276 65.0312 84 65.0312H91.125C91.5974 65.0312 92.0505 64.8436 92.3845 64.5095C92.7186 64.1755 92.9062 63.7224 92.9062 63.25V54.3438H96.4688V72.1562H78.6562ZM85.7812 61.4688V54.3438H89.3438V61.4688H85.7812ZM100.031 75.7188V82.8438H96.4688V75.7188H100.031ZM107.156 93.5312H89.3438V75.7188H92.9062V84.625C92.9062 85.0974 93.0939 85.5505 93.428 85.8845C93.762 86.2186 94.2151 86.4062 94.6875 86.4062H101.812C102.285 86.4062 102.738 86.2186 103.072 85.8845C103.406 85.5505 103.594 85.0974 103.594 84.625V75.7188H107.156V93.5312ZM107.156 72.1562H100.031V52.5625C100.031 52.0901 99.8436 51.637 99.5095 51.303C99.1755 50.9689 98.7224 50.7812 98.25 50.7812H82.2188V25.8438H107.156V72.1562Z" fill="#2878CD"/>
</svg>
