<svg width="103" height="114" viewBox="0 0 103 114" fill="none" xmlns="http://www.w3.org/2000/svg">
<path d="M81.4744 80.9718L70.8916 77.445L67.0924 69.8464C70.5151 66.3627 72.8915 61.7533 73.6928 56.9454L74.1666 54.1055H78.2188C81.9019 54.1055 84.8984 51.109 84.8984 47.4258V33.3984C84.8984 14.9825 69.9159 0 51.5 0C33.0369 0 18.1016 14.9396 18.1016 33.3984V47.4258C18.1016 50.3283 19.9632 52.8034 22.5547 53.7225V56.332C22.5547 60.0152 25.5512 63.0117 29.2344 63.0117H31.1897C32.155 65.1085 33.4043 67.0505 34.9246 68.795C35.2399 69.1575 35.5687 69.5088 35.9056 69.8506L32.1084 77.445L21.5253 80.9721C9.22025 85.0752 0.289062 98.0291 0.289062 111.773C0.289062 113.003 1.28589 114 2.51562 114H100.484C101.714 114 102.711 113.003 102.711 111.773C102.711 98.0291 93.78 85.0752 81.4744 80.9718ZM80.4453 47.4258C80.4453 48.6535 79.4465 49.6523 78.2188 49.6523H74.8206C75.3866 45.2682 75.7637 40.6029 75.9154 36.008C75.9198 35.8784 75.9234 35.7524 75.9274 35.625H80.4453V47.4258ZM24.7812 49.6523C23.5535 49.6523 22.5547 48.6535 22.5547 47.4258V35.625H27.0742C27.0815 35.8572 27.0893 36.0906 27.098 36.3255C27.0982 36.3335 27.0987 36.3413 27.0989 36.3493C27.0989 36.35 27.0989 36.3506 27.0989 36.3513C27.2547 40.8205 27.627 45.3647 28.1801 49.6521H24.7812V49.6523ZM29.2344 58.5586C28.0066 58.5586 27.0078 57.5598 27.0078 56.332V54.1055H28.8331L29.307 56.9463C29.3974 57.4863 29.5085 58.0242 29.6369 58.5586H29.2344ZM27.0116 31.1719H22.6393C23.767 16.2492 36.2207 4.45312 51.5 4.45312C66.7114 4.45312 79.2198 16.2477 80.3605 31.1719H75.9886C75.8283 18.8752 65.8148 8.90625 53.493 8.90625H49.5074C37.1859 8.90625 27.1717 18.8752 27.0116 31.1719ZM49.5072 13.3594H53.4928C63.4698 13.3594 71.5449 21.52 71.5391 31.4858C71.5391 32.1865 71.5335 32.7966 71.5217 33.3517C71.5217 33.3588 71.5215 33.3662 71.5215 33.3735L68.7365 32.9756C61.1706 31.8953 54.0269 28.3234 48.6213 22.9178C48.2036 22.5003 47.6374 22.2656 47.0469 22.2656C41.0672 22.2656 35.3432 24.99 31.5594 29.5928C32.4918 20.5265 40.1563 13.3594 49.5072 13.3594ZM34.253 58.5586C33.1384 54.8507 31.8631 43.9405 31.5812 36.9491L34.5779 32.9534C37.3302 29.2849 41.6121 27.0055 46.1669 26.7439C52.1602 32.4475 59.9135 36.2139 68.1068 37.3838L71.3848 37.8522C71.1657 42.5024 70.7179 47.1688 70.0764 51.4605C70.0762 51.4619 70.076 51.4634 70.0758 51.465C69.8718 52.8448 69.7111 53.7327 69.3005 56.2129C68.1213 63.2856 62.8439 69.6814 55.8772 71.4232C53.0101 72.1391 49.9895 72.1388 47.1239 71.4232C42.7739 70.3358 38.7852 67.3259 36.2111 63.0117H40.7502C41.6693 65.6032 44.1441 67.4648 47.0469 67.4648H51.5C55.1905 67.4648 58.1797 64.4759 58.1797 60.7852C58.1797 57.102 55.1832 54.1055 51.5 54.1055H47.0469C44.0795 54.1055 41.6412 56.0221 40.7464 58.5586H34.253ZM46.8596 75.9293C48.3868 76.2511 49.9439 76.4156 51.5 76.4156C52.7182 76.4156 53.9365 76.3137 55.1411 76.1159L51.2068 80.2767L46.8596 75.9293ZM48.1457 83.5137L41.0835 90.982C39.1392 87.2605 37.4687 83.3874 36.0984 79.4224L38.7505 74.1183L48.1457 83.5137ZM63.8721 73.3639L66.9011 79.4221C65.5287 83.3939 63.8576 87.2683 61.9154 90.9854L54.3567 83.4266L63.8721 73.3639ZM44.8203 60.7852C44.8203 59.5559 45.8174 58.5586 47.0469 58.5586H51.5C52.7277 58.5586 53.7266 59.5574 53.7266 60.7852C53.7266 62.0147 52.7293 63.0117 51.5 63.0117H47.0469C45.8191 63.0117 44.8203 62.0129 44.8203 60.7852ZM4.83125 109.547C5.71364 98.5167 13.0544 88.4909 22.9336 85.1965L32.3061 82.0731C34.0233 86.8212 36.1505 91.4362 38.6436 95.8199C38.6478 95.8275 38.6518 95.835 38.6561 95.8424C38.6561 95.8426 38.6563 95.8426 38.6563 95.8428C40.4778 99.0466 42.5281 102.177 44.7508 105.15L47.49 109.547H4.83125ZM51.5 107.562L48.4803 102.714C48.4465 102.66 48.4104 102.607 48.3721 102.556C46.5691 100.151 44.8871 97.6354 43.3552 95.0609L51.2958 86.6636L59.6628 95.0306C58.1207 97.6239 56.4329 100.15 54.6283 102.555C54.5192 102.701 54.674 102.472 51.5 107.562ZM55.51 109.547L58.2489 105.15C60.4815 102.166 62.5464 99.0103 64.3862 95.7689C64.3974 95.7493 64.4078 95.7293 64.419 95.7097C64.4203 95.7072 64.4216 95.705 64.423 95.7026C66.8844 91.3608 68.9894 86.7858 70.6939 82.0731L80.0661 85.1965C89.9456 88.4909 97.2864 98.5167 98.1688 109.547H55.51Z" fill="#2878CD"/>
</svg>
